<?xml version="1.0" encoding="UTF-8" standalone="no"?>
<svg
   xmlns:dc="http://purl.org/dc/elements/1.1/"
   xmlns:cc="http://creativecommons.org/ns#"
   xmlns:rdf="http://www.w3.org/1999/02/22-rdf-syntax-ns#"
   xmlns:svg="http://www.w3.org/2000/svg"
   xmlns="http://www.w3.org/2000/svg"
   viewBox="0 0 1243.1733 540.37335"
   height="540.37335"
   width="1243.1733"
   xml:space="preserve"
   id="svg2"
   version="1.1"><metadata
     id="metadata8"><rdf:RDF><cc:Work
         rdf:about=""><dc:format>image/svg+xml</dc:format><dc:type
           rdf:resource="http://purl.org/dc/dcmitype/StillImage" /></cc:Work></rdf:RDF></metadata><defs
     id="defs6"><clipPath
       id="clipPath58"
       clipPathUnits="userSpaceOnUse"><path
         id="path56"
         d="m 323.797,305.797 h 3000 v 3600 h -3000 z" /></clipPath><clipPath
       id="clipPath124"
       clipPathUnits="userSpaceOnUse"><path
         id="path122"
         d="m 3324,305.797 h 3000 v 3600 H 3324 Z" /></clipPath><clipPath
       id="clipPath186"
       clipPathUnits="userSpaceOnUse"><path
         id="path184"
         d="m 6324,305.797 h 3000 v 3600 H 6324 Z" /></clipPath></defs><g
     transform="matrix(1.3333333,0,0,-1.3333333,0,540.37333)"
     id="g10"><g
       transform="scale(0.1)"
       id="g12"><path
         id="path14"
         style="fill:#ffffff;fill-opacity:1;fill-rule:nonzero;stroke:none"
         d="M 0,0 H 9323.75 V 4052.81 H 0 Z" /><path
         id="path16"
         style="fill:#eaeaf2;fill-opacity:1;fill-rule:nonzero;stroke:none"
         d="m 323.746,305.777 h 3000 v 3600 h -3000 z" /><g
         transform="scale(10)"
         id="g18"><text
           id="text22"
           style="font-variant:normal;font-weight:normal;font-size:10px;font-family:Arial;-inkscape-font-specification:Arial;writing-mode:lr-tb;fill:#262626;fill-opacity:1;fill-rule:nonzero;stroke:none"
           transform="matrix(1,0,0,-1,43.2297,16.3277)"><tspan
             id="tspan20"
             y="0"
             x="0 44.387501 49.94883 55.510551 94.337555 99.899277 105.4606 144.2876 149.84932 155.41066 194.23766 199.79936 205.36069 244.18799 249.7493 255.311">0100200300400500</tspan></text>
<text
           id="text26"
           style="font-variant:normal;font-weight:normal;font-size:11px;font-family:Arial;-inkscape-font-specification:Arial;writing-mode:lr-tb;fill:#262626;fill-opacity:1;fill-rule:nonzero;stroke:none"
           transform="matrix(1,0,0,-1,155.3357,2.2808)"><tspan
             id="tspan24"
             y="0"
             x="0 6.3441443 8.7878904 17.95089 24.068464 27.12472 30.180582 36.29855 42.416122 48.533699">Time Index</tspan></text>
<text
           id="text42"
           style="font-variant:normal;font-weight:normal;font-size:10px;font-family:Arial;-inkscape-font-specification:Arial;writing-mode:lr-tb;fill:#262626;fill-opacity:1;fill-rule:nonzero;stroke:none"
           transform="matrix(1,0,0,-1,19.8127,43.3163)"><tspan
             id="tspan28"
             y="0"
             x="0">0</tspan><tspan
             id="tspan30"
             y="-52.7859"
             x="0">5</tspan><tspan
             id="tspan32"
             y="-105.5718"
             x="-5.5625 -0.00117249">10</tspan><tspan
             id="tspan34"
             y="-158.3577"
             x="-5.5625 -0.00117249">15</tspan><tspan
             id="tspan36"
             y="-211.1436"
             x="-5.5625 -0.00117249">20</tspan><tspan
             id="tspan38"
             y="-263.9295"
             x="-5.5625 -0.00117249">25</tspan><tspan
             id="tspan40"
             y="-316.71539"
             x="-5.5625 -0.00117249">30</tspan></text>
<text
           id="text46"
           style="font-variant:normal;font-weight:normal;font-size:11px;font-family:Arial;-inkscape-font-specification:Arial;writing-mode:lr-tb;fill:#262626;fill-opacity:1;fill-rule:nonzero;stroke:none"
           transform="matrix(0,1,1,0,7.96836,134.679)"><tspan
             id="tspan44"
             y="0"
             x="0 6.1175747 12.23554 17.73554 23.853115 33.016113 39.134079 45.251656 51.369228 55.03223 61.149803 64.206062 72.149818 74.593575 80.711159 86.82914 89.884987 95.384987 101.50297 107.62055 113.73814 119.85573">Luxembourg wind speed </tspan></text>
<text
           id="text50"
           style="font-variant:normal;font-weight:normal;font-size:11px;font-family:Arial;-inkscape-font-specification:Arial;writing-mode:lr-tb;fill:#262626;fill-opacity:1;fill-rule:nonzero;stroke:none"
           transform="matrix(0,1,1,0,7.96836,257.591)"><tspan
             id="tspan48"
             y="0"
             x="0 3.6630001 12.826 18.943586 25.061565">(mph)</tspan></text>
</g><g
         id="g52"><g
           clip-path="url(#clipPath58)"
           id="g54"><path
             id="path60"
             style="fill:none;stroke:#4c72b0;stroke-width:17.5;stroke-linecap:round;stroke-linejoin:round;stroke-miterlimit:10;stroke-dasharray:none;stroke-opacity:1"
             d="m 460.109,1262.8 4.996,-99.17 4.993,1090.91 4.996,-396.7 4.996,198.35 4.992,-892.56 4.996,-99.17 h 4.996 l 4.996,595.04 4.993,-595.04 4.996,-99.179 h 4.996 l 4.992,396.699 4.996,-297.52 4.996,-99.179 4.996,892.559 9.988,-198.34 9.993,-595.04 h 4.992 l 4.996,99.17 9.988,595.04 4.996,198.35 4.996,-297.52 4.996,-595.04 4.993,-99.179 4.996,99.179 4.996,-396.698 4.992,991.738 4.996,-595.04 4.996,-99.179 4.996,495.869 4.993,-297.52 h 4.996 l 4.996,297.52 h 4.996 l 4.992,198.35 4.996,-694.219 4.996,-198.347 4.992,396.696 4.996,892.56 4.997,198.35 4.996,297.52 4.992,-892.56 4.996,-495.87 4.996,198.35 4.992,99.17 4.996,-198.35 h 4.996 l 4.996,-99.17 4.993,99.17 h 4.996 l 4.996,396.7 h 4.992 l 9.992,991.73 4.996,-1289.25 9.989,-396.699 4.996,99.179 4.996,-396.698 4.992,495.868 4.996,99.17 4.996,-198.34 9.988,396.69 h 4.997 l 9.988,-396.69 4.996,595.04 4.996,-595.04 4.992,-99.179 4.996,694.219 4.996,-198.35 h 4.996 l 4.993,-99.17 4.996,99.17 4.996,793.39 4.996,-595.04 4.992,-396.7 h 9.992 l 4.993,-495.866 4.996,396.696 4.996,198.35 4.996,99.17 h 4.992 l 9.992,-396.69 h 4.992 l 4.996,297.52 4.997,595.04 4.996,297.52 4.992,-793.39 4.996,-396.69 4.996,99.17 4.992,-198.349 4.996,-297.519 4.996,793.388 9.989,-793.388 9.992,595.038 4.996,396.7 4.992,495.86 4.996,297.53 4.996,-793.39 4.99,-396.7 5,-495.866 4.99,396.696 5,198.35 4.99,-396.699 5,-198.347 5,297.526 4.99,-99.179 4.99,-297.519 h 5 l 5,396.698 4.99,595.04 4.99,-198.35 h 5 l 5,-99.17 4.99,-198.35 4.99,-99.17 5,396.69 4.99,-297.52 5,793.39 4.99,1289.25 5,-1190.08 4.99,-595.04 5,396.69 5,99.18 4.99,-198.35 4.99,892.56 5,-495.87 5,-793.38 4.99,694.21 4.99,-99.17 5,99.17 h 5 l 4.99,-99.17 4.99,-694.22 5,-198.34 4.99,-297.526 5,595.046 5,-198.35 4.99,-495.868 4.99,991.738 10,-396.7 4.99,-99.17 4.99,495.87 10,-595.04 4.99,99.17 4.99,595.04 5,-694.21 5,297.52 4.99,-595.046 4.99,396.696 5,198.35 4.99,-595.046 5,198.347 h 5 l 4.99,991.739 h 9.99 l 9.99,-595.04 4.99,297.52 5,-297.52 5,-198.35 4.99,694.21 4.99,-495.86 5,297.52 5,99.17 4.99,-99.17 4.99,-198.35 5,297.52 4.99,-99.17 5,-396.7 5,198.35 4.99,-198.35 4.99,-297.519 5,495.869 5,-396.69 4.99,-297.526 4.99,991.736 5,-297.52 h 5 l 4.99,-297.52 4.99,-396.696 9.99,892.566 5,-198.35 h 5 l 4.99,694.21 9.99,-793.38 5,99.17 4.99,-99.17 14.99,-595.046 4.99,694.216 h 4.99 l 5,-694.216 5,297.526 4.99,-297.526 4.99,495.866 5,99.18 h 4.99 l 5,396.69 5,-694.21 h 4.99 l 4.99,-297.526 h 5 l 5,595.046 4.99,-198.35 4.99,198.35 5,-198.35 5,495.87 9.98,396.69 5,-991.73 5,198.34 4.99,-495.866 4.99,495.866 5,198.35 4.99,-297.52 5,495.87 5,-297.52 4.99,-396.699 h 4.99 l 5,694.219 9.99,-595.04 4.99,892.56 5,-595.04 5,-198.35 9.98,198.35 5,396.69 5,-396.69 h 4.99 l 5,-396.699 4.99,99.179 4.99,793.38 5,-396.69 5,-198.35 4.99,-297.519 4.99,99.179 5,694.21 5,198.35 9.98,-991.739 h 5 l 5,198.349 4.99,99.17 4.99,495.87 10,-595.04 4.99,99.17 5,-198.34 4.99,595.04 4.99,-396.7 5,495.87 5,-793.389 4.99,297.519 14.99,-297.519 4.99,-198.347 4.99,892.566 5,-991.738 5,595.038 4.99,198.35 4.99,-495.869 5,198.349 4.99,495.87 5,-595.04 5,99.17 4.99,-396.696 4.99,297.526 5,198.34 5,-99.17 4.99,892.56 4.99,-991.73 h 5 l 5,297.52 4.99,-595.046 4.99,694.216 5,-396.69 9.99,595.04 5,-495.87 4.99,-99.17 h 4.99 l 5,198.34 5,99.18 9.98,-198.35 h 5 l 5,-396.696 4.99,198.347 4.99,-198.347 5,198.347 5,793.389 4.99,-297.52 4.99,-495.869 5,297.519 5,-198.34 4.99,198.34 h 5 l 4.99,-198.34 4.99,595.04 5,-892.566 5,297.526 4.99,-297.526 4.99,495.866 5,-99.17 5,297.52 4.99,-793.388 4.99,297.519 5,99.179 5,892.56 4.99,-99.18 4.99,-198.34 5,-396.7 5,-297.519 4.99,396.699 5,-198.35 4.99,198.35 h 9.99 l 9.99,595.04 4.99,-99.18 5,99.18 5,-198.35 4.99,-495.87 4.99,396.7 5,-297.52 5,-595.046 4.99,297.526 5,396.69 h 4.99 l 5,396.69 4.99,-396.69 h 9.99 l 4.99,-297.52 5,198.35 h 5 l 4.99,-99.18 4.99,595.04 5,-495.86 h 5 l 4.99,99.17 4.99,-793.388 5,396.698 9.99,198.34 5,-99.17 4.99,297.52 h 5 l 4.99,198.35 5,396.69 4.99,-694.21 4.99,-198.35 5,793.39 5,-595.04 4.99,99.17 4.99,-198.35 10,396.7 4.99,-694.219 4.99,99.179 5,-595.046 5,991.736 4.99,297.52 5,-595.04 4.99,198.35 5,-595.046 4.99,198.347 5,297.519 4.99,-99.17 h 4.99 l 5,198.35 5,-396.699 4.99,99.179 4.99,595.04 5,-991.738 h 5 l 9.99,1289.258 h 4.99 l 5,-495.87 4.99,-694.216 5,892.566 4.99,-495.87 5,-198.349 4.99,495.869 5,-694.216 4.99,694.216 4.99,297.52 5,396.69 h 5 l 4.99,-991.73 4.99,297.52 5,-99.17 9.99,1090.91 5,-198.35 4.99,-991.74 5,198.35 4.99,-396.69 5,99.17 4.99,198.35 h 5 l 4.99,297.52 5,198.34 9.98,-198.34 5,-694.219 5,892.559 4.99,-694.21 4.99,99.17 5,-595.038 5,99.172 4.99,495.866 5,-198.34 4.99,595.04 5,-396.7 4.99,-99.17 5,-396.696 4.99,495.866 9.99,396.7 5,-198.35 4.99,-396.69 4.99,198.34 h 5 l 5,198.35 4.99,-198.35 5,-297.519 4.99,396.699 h 5 l 4.99,-198.35 5,198.35 4.99,-198.35 5,198.35 4.99,396.69 5,-793.389 4.99,-297.519 h 4.99 l 10,2082.648 4.99,-1090.91 4.99,-396.7 5,495.87 5,198.35 4.99,-198.35 5,297.52 4.99,-297.52 5,-595.04 4.99,-99.17 5,198.34 4.99,-297.519 5,793.389 4.99,1983.47 5,-991.73 9.99,-1289.26 4.99,198.35 5,-595.04 4.99,694.21 4.99,-396.69 5,396.69 h 5 l 4.99,-99.17 5,-495.87 4.99,297.52 5,991.74 4.99,-1289.26 5,892.56 4.99,99.17 5,-793.38 4.99,-198.35 5,297.52 4.99,694.21 4.99,-793.38 5,297.52 5,-495.87 4.99,99.17 5,793.39 4.99,-991.73 5,793.38 h 4.99 l 5,99.18 4.99,297.52 5,-297.52 4.99,-99.18 5,-1090.906 4.99,396.696 5,-198.349 4.99,198.349 5,-495.868 4.99,396.698 9.99,1090.9 5,396.7 4.99,-793.39 5,-297.52 9.99,595.04 4.99,-198.35 5,297.52 9.99,-198.34 4.99,-198.35 5,-495.87 4.99,-198.34 5,297.52 4.99,-99.18 5,99.18 4.99,-99.18 4.99,595.04 5,-1090.906 5,-99.172 4.99,595.038 5,-99.17 4.99,-595.044 5,793.394 4.99,396.69 5,-99.17 4.99,-595.04 5,-396.698 4.99,495.868 5,198.35 4.99,892.56 h 5 l 4.99,-198.35 5,-892.56 4.99,-99.17 v 0" /><path
             id="path62"
             style="fill:none;stroke:#55a868;stroke-width:17.5;stroke-linecap:round;stroke-linejoin:round;stroke-miterlimit:10;stroke-dasharray:none;stroke-opacity:1"
             d="m 460.109,1311.81 4.996,278.76 4.993,-290.67 4.996,-65.92 4.996,351.07 4.992,99.32 4.996,-299.38 4.996,-533.83 4.996,589.28 4.993,-549.26 4.996,405.39 4.996,-92.92 9.988,311.31 4.996,-125.12 4.996,-348.24 4.992,374.16 4.996,-480.463 4.997,335.353 4.996,14.93 4.992,26.44 4.996,328.3 9.988,-936.867 4.996,842.667 4.996,142.48 4.996,-238.89 4.993,-85 4.996,-370.987 4.996,-242.535 4.992,51.324 4.996,416.448 4.996,-305.288 4.996,559.938 4.993,-70.25 4.996,-781.071 4.996,689.221 4.996,-91.24 4.992,-145.52 4.996,-54.19 4.996,127.88 4.992,221.4 4.996,-372.035 4.997,1078.725 4.996,-560.3 4.992,-32.74 4.996,120.09 4.996,-719.002 4.992,32.535 4.996,190.267 4.996,712.78 4.996,-281.95 4.993,-31.35 4.996,230.04 4.996,-661.48 4.992,42.39 4.996,-132.068 4.996,491.468 4.996,-472.56 4.993,810.04 4.996,-98.44 9.992,-735.371 4.992,118.761 4.996,-292.66 4.996,1096.29 4.992,-341.64 4.996,-500.41 4.997,365.23 4.996,-300.42 4.992,-39.58 4.996,-4.05 4.996,379.51 4.992,-75.34 4.996,-526.718 4.996,839.278 4.996,-163.42 4.993,-836.12 4.996,118.875 4.996,171.883 4.996,604.062 4.992,-647.172 4.996,80.712 4.996,271.69 4.993,-174.41 4.996,-41.64 4.996,382.57 4.996,-279.04 4.992,-68.8 4.996,781.7 4.996,-271.16 4.992,-507.04 4.996,123.52 4.997,22.48 4.996,627.2 4.992,-483.77 4.996,-114.01 4.996,-358.377 4.992,81.627 4.996,520.1 9.992,-576.617 4.993,434.847 4.996,-621.843 4.996,-152.602 9.988,808.665 9.992,116.95 4.99,-194.24 5,165.2 4.99,-161.72 5,-337.84 4.99,462.99 5,-462.07 5,586.69 4.99,-286.19 4.99,170.08 5,493.5 5,-683.48 4.99,-320.328 4.99,520.078 5,-435.65 5,44.9 9.98,407.47 5,-230.55 4.99,-56.85 5,693.02 4.99,-696.51 5,275.87 4.99,-158.05 5,167.07 5,-35.31 4.99,-350.22 4.99,619.72 5,-483.11 9.99,631.22 4.99,-518.34 5,116.81 5,661.21 4.99,-697.61 4.99,423.74 5,-678.38 4.99,184.49 5,-441.541 5,16.304 4.99,393.327 4.99,-185.59 5,51.03 5,-4.75 9.98,886.86 5,-397.88 5,305.02 9.98,-1073.888 5,589.828 5,-236.86 4.99,579.23 4.99,-191.78 5,100.18 4.99,-320.05 5,-194.83 5,230.74 4.99,-267.6 4.99,-42.35 5,155.55 5,-77.41 4.99,-162.76 4.99,6.65 5,396.14 5,287.22 4.99,-833.074 4.99,332.004 5,219.97 5,-619.106 4.99,373.806 4.99,-145.5 5,318.14 4.99,-334.18 5,433.26 5,-49.1 4.99,-163.87 4.99,345.01 5,-705.09 5,652.91 4.99,7.71 4.99,-194.76 5,-573.196 5,-1.297 4.99,398.933 4.99,30.89 5,63.71 9.99,601.56 5,-749.96 4.99,-148.06 4.99,-31.72 5,196.31 9.99,109.07 4.99,335.53 5,-220.48 5,-19.72 4.99,-344.39 4.99,129.96 5,-510.527 5,613.957 4.99,-205.94 4.99,129.13 5,-266.768 4.99,235.538 10,-124.36 4.99,175.55 4.99,271.96 5,-199.7 5,193.5 9.98,-544.914 5,577.374 5,-595.112 4.99,468.102 9.99,-242.56 5,216.61 4.99,-497.988 4.99,638.618 5,-242.73 4.99,-43.9 5,-132.97 5,-381.034 4.99,243.266 4.99,501.218 5,-13.94 5,-598.669 9.98,481.739 10,183.39 4.99,-519.92 4.99,403.19 5,-174.87 5,-2.48 4.99,-113.93 5,158.27 4.99,-117.67 4.99,77.27 5,56.51 5,133.79 4.99,-44.57 4.99,-212.13 5,135.89 5,-269.95 4.99,190.01 4.99,771.96 5,-797.01 5,-62.94 4.99,2.24 4.99,256.85 5,-13.15 5,-138.61 4.99,-263.91 5,267.62 4.99,-385.929 4.99,292.179 5,-96.82 5,12.39 4.99,216.96 4.99,-454.318 5,217.258 5,137.92 4.99,-19.1 4.99,80.26 5,120.01 5,-318.34 4.99,315.81 4.99,-412.388 5,399.518 4.99,-580.225 5,226.405 5,829.05 4.99,-572.12 4.99,-198.87 5,133.73 5,-209.352 4.99,561.022 4.99,-398.38 5,403.17 5,-104.66 4.99,-246.15 4.99,508.31 5,-260.1 5,-30.13 4.99,-170.41 5,120.07 4.99,-376.707 4.99,350.767 5,-399.649 5,240.709 4.99,-96.23 4.99,154.66 5,-403.546 5,489.436 4.99,134.86 4.99,-305.73 5,-43.37 5,206.21 4.99,282.72 4.99,-580.83 5,202.34 5,-22.18 4.99,104.63 5,-310.828 4.99,-182.762 4.99,276.48 5,47.39 5,552.06 4.99,-427.15 4.99,-44.33 5,-235.559 5,-1.422 4.99,-124.117 4.99,461.298 10,228.19 4.99,-380.8 4.99,644.99 5,-416.69 5,-238.57 9.99,396.62 9.98,-505.47 5,168.44 5,-288.016 4.99,656.276 4.99,-650.385 5,396.455 5,26.84 4.99,-35.94 9.99,-174.75 5,-333.293 4.99,234.513 5,89.45 4.99,-177.885 5,225.875 4.99,-39.27 5,118.11 4.99,33.37 4.99,-246.86 5,343.63 5,-292.83 4.99,-381.634 4.99,922.974 5,-895.029 5,544.949 4.99,239.97 4.99,-397.97 5,-44.54 5,-202.112 4.99,426.952 5,191.24 4.99,-390.03 5,131.7 4.99,73.13 5,548.1 4.99,-397.02 4.99,-10.7 5,-43.62 5,458.87 4.99,-144.28 9.99,-614.17 5,130.93 4.99,636.3 4.99,-1035.925 5,717.385 5,-325.52 4.99,-40.95 5,-54.34 4.99,170.23 5,-544.731 4.99,765.351 9.99,-626.277 4.99,134.857 5,468.35 5,-301.32 4.99,-458.691 4.99,475.721 5,-276.792 5,470.752 4.99,-475.064 5,61.804 4.99,368.22 5,278.71 4.99,-412.29 9.99,336.61 5,-110.32 4.99,-337.84 5,300.52 4.99,-162.24 4.99,-371.932 5,633.922 5,307.3 4.99,-772.35 4.99,-282.517 10,968.337 4.99,-99.9 5,-169.81 4.99,276.96 5,-471.09 4.99,-56.47 5,240.96 4.99,-313.05 5,-383.87 4.99,220.58 5,0.1 4.99,151.68 4.99,351.27 5,-171.01 5,-328.52 4.99,281.2 4.99,378.94 10,-604.75 9.99,220.35 4.99,-207.83 5,472.94 4.99,194.65 5,28.71 4.99,-566.91 5,-56.49 4.99,260.41 5,437.09 4.99,3.28 4.99,-110.05 5,17.32 5,-370.31 4.99,329.08 5,182.67 4.99,299.31 5,-967.87 4.99,113.16 5,-96.61 4.99,-276.023 5,311.223 4.99,-45.44 5,-643.545 4.99,738.455 4.99,-29.45 5,-199.07 5,-135.872 4.99,617.722 4.99,-262.58 5,246.26 5,-183.26 4.99,366.6 5,-87.87 4.99,246.87 5,-20.6 4.99,-51.75 5,-280.62 4.99,-449.98 5,245.62 4.99,492.53 5,-9.15 4.99,208.09 5,-650.78 4.99,16.75 5,238.58 4.99,-10.69 4.99,-101.41 5,275.09 5,-65.18 4.99,-1018.652 5,600.062 4.99,-233.21 5,700.38 4.99,-614.48 5,396.6 4.99,186.6 5,92.11 4.99,-370.21 5,-764.372 4.99,1192.642 4.99,-615.6 5,472.92 5,-783.462 4.99,410.832 5,-427.898 4.99,738.888 5,-702.77 4.99,231.17 5,-139.4 4.99,-101.771 5,696.791 4.99,-553.31 9.99,-210.301 5,248.761 4.99,391.99 9.99,-462.24 4.99,41.29 5,121.15 5,-202.37 4.99,591.28 5,-240.53 4.99,177.1 5,391.42 4.99,-378.88 5,168.73 4.99,-48.27 5,-10.95 4.99,-210.65 5,-65.73 4.99,-93.59 5,106.43 4.99,-37.07 5,108.72 4.99,-205.95 4.99,302.76 10,-648.917 4.99,560.937 5,16.72 4.99,-330.74 5,583.76 4.99,-476.61 5,100.02 9.99,329.93 4.99,-391.61 5,-31.56 4.99,139.47 5,258.98 4.99,109.17 9.99,-1115.541 v 0" /></g></g><g
         transform="scale(10)"
         id="g64"><text
           id="text68"
           style="font-variant:normal;font-weight:normal;font-size:12px;font-family:Arial;-inkscape-font-specification:Arial;writing-mode:lr-tb;fill:#262626;fill-opacity:1;fill-rule:nonzero;stroke:none"
           transform="matrix(1,0,0,-1,75.1637,396.578)"><tspan
             id="tspan66"
             y="0"
             x="0 6.673831 10.007817 16.681648 23.355478 29.355478 35.35548 38.689465 45.363297 52.037128 58.710957 65.384789 72.058617 75.392609 82.066437 86.062439 92.736267 99.410103 102.07611 108.07611 111.4101 114.07611 120.74995">2 days ahead prediction</tspan></text>
<text
           id="text72"
           style="font-variant:normal;font-weight:normal;font-size:12px;font-family:Arial;-inkscape-font-specification:Arial;writing-mode:lr-tb;fill:#262626;fill-opacity:1;fill-rule:nonzero;stroke:none"
           transform="matrix(1,0,0,-1,202.5877,396.578)"><tspan
             id="tspan70"
             y="0"
             x="0 3.3339736 6.6679473 16.663948 24.667948 32.671947 39.679947 46.353779 49.687752 56.361584 63.035416 69.709244 73.705246 80.379074">, MSE=2.19e­02</tspan></text>
</g><path
         id="path74"
         style="fill:none;stroke:#4c72b0;stroke-width:17.5;stroke-linecap:round;stroke-linejoin:round;stroke-miterlimit:10;stroke-dasharray:none;stroke-opacity:1"
         d="m 413.746,3778.28 h 200" /><g
         transform="scale(10)"
         id="g76"><text
           id="text80"
           style="font-variant:normal;font-weight:normal;font-size:10px;font-family:Arial;-inkscape-font-specification:Arial;writing-mode:lr-tb;fill:#262626;fill-opacity:1;fill-rule:nonzero;stroke:none"
           transform="matrix(1,0,0,-1,69.3746,374.328)"><tspan
             id="tspan78"
             y="0"
             x="0 7.2214832 12.783204 18.344536">Real</tspan></text>
</g><path
         id="path82"
         style="fill:none;stroke:#55a868;stroke-width:17.5;stroke-linecap:round;stroke-linejoin:round;stroke-miterlimit:10;stroke-dasharray:none;stroke-opacity:1"
         d="m 413.746,3635 h 200" /><g
         transform="scale(10)"
         id="g84"><text
           id="text88"
           style="font-variant:normal;font-weight:normal;font-size:10px;font-family:Arial;-inkscape-font-specification:Arial;writing-mode:lr-tb;fill:#262626;fill-opacity:1;fill-rule:nonzero;stroke:none"
           transform="matrix(1,0,0,-1,69.3746,360)"><tspan
             id="tspan86"
             y="0"
             x="0 7.2214832 12.783204 18.344536 23.344536 29.184534 34.746258 41.416256 47.52446">Conv+LSTM</tspan></text>
</g><path
         id="path90"
         style="fill:#eaeaf2;fill-opacity:1;fill-rule:nonzero;stroke:none"
         d="m 3323.75,305.777 h 3000 v 3600 h -3000 z" /><g
         transform="scale(10)"
         id="g92"><text
           id="text96"
           style="font-variant:normal;font-weight:normal;font-size:10px;font-family:Arial;-inkscape-font-specification:Arial;writing-mode:lr-tb;fill:#262626;fill-opacity:1;fill-rule:nonzero;stroke:none"
           transform="matrix(1,0,0,-1,343.23,16.3277)"><tspan
             id="tspan94"
             y="0"
             x="0 44.387501 49.949207 55.510529 94.337425 99.899139 105.46046 144.28735 149.84906 155.41039 194.23729 199.799 205.36031 244.18761 249.74893 255.31064">0100200300400500</tspan></text>
<text
           id="text100"
           style="font-variant:normal;font-weight:normal;font-size:11px;font-family:Arial;-inkscape-font-specification:Arial;writing-mode:lr-tb;fill:#262626;fill-opacity:1;fill-rule:nonzero;stroke:none"
           transform="matrix(1,0,0,-1,455.336,2.2808)"><tspan
             id="tspan98"
             y="0"
             x="0 6.3441443 8.7879019 17.950903 24.068464 27.124706 30.180948 36.298512 42.416073 48.533638">Time Inde+</tspan></text>
<text
           id="text116"
           style="font-variant:normal;font-weight:normal;font-size:10px;font-family:Arial;-inkscape-font-specification:Arial;writing-mode:lr-tb;fill:#262626;fill-opacity:1;fill-rule:nonzero;stroke:none"
           transform="matrix(1,0,0,-1,319.813,43.3163)"><tspan
             id="tspan102"
             y="0"
             x="0">0</tspan><tspan
             id="tspan104"
             y="-52.7859"
             x="0">5</tspan><tspan
             id="tspan106"
             y="-105.5718"
             x="-5.5625 -0.00118164">10</tspan><tspan
             id="tspan108"
             y="-158.3577"
             x="-5.5625 -0.00118164">15</tspan><tspan
             id="tspan110"
             y="-211.1436"
             x="-5.5625 -0.00118164">20</tspan><tspan
             id="tspan112"
             y="-263.9295"
             x="-5.5625 -0.00118164">25</tspan><tspan
             id="tspan114"
             y="-316.71539"
             x="-5.5625 -0.00118164">30</tspan></text>
</g><g
         id="g118"><g
           clip-path="url(#clipPath124)"
           id="g120"><path
             id="path126"
             style="fill:none;stroke:#4c72b0;stroke-width:17.5;stroke-linecap:round;stroke-linejoin:round;stroke-miterlimit:10;stroke-dasharray:none;stroke-opacity:1"
             d="m 3460.11,1262.8 5,-99.17 4.99,1090.91 4.99,-396.7 5,198.35 5,-892.56 4.99,-99.17 h 4.99 l 5,595.04 4.99,-595.04 5,-99.179 h 4.99 l 5,396.699 4.99,-297.52 5,-99.179 5,892.559 9.98,-198.34 10,-595.04 h 4.99 l 4.99,99.17 9.99,595.04 5,198.35 4.99,-297.52 5,-595.04 4.99,-99.179 5,99.179 4.99,-396.698 5,991.738 4.99,-595.04 5,-99.179 5,495.869 4.99,-297.52 h 4.99 l 5,297.52 h 5 l 4.99,198.35 4.99,-694.219 5,-198.347 4.99,396.696 5,892.56 4.99,198.35 5,297.52 4.99,-892.56 5,-495.87 5,198.35 4.99,99.17 4.99,-198.35 h 5 l 5,-99.17 4.99,99.17 h 4.99 l 5,396.7 h 5 l 9.98,991.73 5,-1289.25 9.99,-396.699 4.99,99.179 5,-396.698 4.99,495.868 5,99.17 5,-198.34 9.98,396.69 h 5 l 9.99,-396.69 4.99,595.04 5,-595.04 5,-99.179 4.99,694.219 4.99,-198.35 h 5 l 4.99,-99.17 5,99.17 4.99,793.39 5,-595.04 4.99,-396.7 h 10 l 4.99,-495.866 4.99,396.696 5,198.35 5,99.17 h 4.99 l 9.99,-396.69 h 5 l 4.99,297.52 4.99,595.04 5,297.52 4.99,-793.39 5,-396.69 5,99.17 4.99,-198.349 4.99,-297.519 5,793.388 9.99,-793.388 9.99,595.038 5,396.7 4.99,495.86 4.99,297.53 5,-793.39 4.99,-396.7 5,-495.866 4.99,396.696 5,198.35 4.99,-396.699 5,-198.347 5,297.526 4.99,-99.179 4.99,-297.519 h 5 l 5,396.698 4.99,595.04 4.99,-198.35 h 5 l 5,-99.17 4.99,-198.35 4.99,-99.17 5,396.69 5,-297.52 4.99,793.39 4.99,1289.25 5,-1190.08 4.99,-595.04 5,396.69 5,99.18 4.99,-198.35 4.99,892.56 5,-495.87 5,-793.38 4.99,694.21 4.99,-99.17 5,99.17 h 5 l 4.99,-99.17 4.99,-694.22 5,-198.34 4.99,-297.526 5,595.046 5,-198.35 4.99,-495.868 4.99,991.738 10,-396.7 4.99,-99.17 4.99,495.87 10,-595.04 4.99,99.17 4.99,595.04 5,-694.21 5,297.52 4.99,-595.046 4.99,396.696 5,198.35 4.99,-595.046 5,198.347 h 5 l 4.99,991.739 h 9.99 l 9.99,-595.04 4.99,297.52 5,-297.52 5,-198.35 4.99,694.21 4.99,-495.86 5,297.52 5,99.17 4.99,-99.17 4.99,-198.35 5,297.52 4.99,-99.17 5,-396.7 5,198.35 4.99,-198.35 4.99,-297.519 5,495.869 5,-396.69 4.99,-297.526 4.99,991.736 5,-297.52 h 5 l 4.99,-297.52 4.99,-396.696 10,892.566 4.99,-198.35 h 5 l 4.99,694.21 9.99,-793.38 5,99.17 4.99,-99.17 14.99,-595.046 4.99,694.216 h 4.99 l 5,-694.216 5,297.526 4.99,-297.526 4.99,495.866 5,99.18 h 5 l 4.99,396.69 5,-694.21 h 4.99 l 4.99,-297.526 h 5 l 5,595.046 4.99,-198.35 4.99,198.35 5,-198.35 5,495.87 9.98,396.69 5,-991.73 5,198.34 4.99,-495.866 4.99,495.866 5,198.35 4.99,-297.52 5,495.87 5,-297.52 4.99,-396.699 h 4.99 l 5,694.219 9.99,-595.04 4.99,892.56 5,-595.04 5,-198.35 9.98,198.35 5,396.69 5,-396.69 h 4.99 l 5,-396.699 4.99,99.179 5,793.38 4.99,-396.69 5,-198.35 4.99,-297.519 4.99,99.179 5,694.21 5,198.35 9.98,-991.739 h 5 l 5,198.349 4.99,99.17 4.99,495.87 10,-595.04 4.99,99.17 5,-198.34 4.99,595.04 4.99,-396.7 5,495.87 5,-793.389 4.99,297.519 14.99,-297.519 4.99,-198.347 4.99,892.566 5,-991.738 5,595.038 4.99,198.35 4.99,-495.869 5,198.349 5,495.87 4.99,-595.04 5,99.17 4.99,-396.696 5,297.526 4.99,198.34 5,-99.17 4.99,892.56 4.99,-991.73 h 5 l 5,297.52 4.99,-595.046 4.99,694.216 5,-396.69 9.99,595.04 5,-495.87 4.99,-99.17 h 5 l 4.99,198.34 5,99.18 9.98,-198.35 h 5 l 5,-396.696 4.99,198.347 4.99,-198.347 5,198.347 5,793.389 4.99,-297.52 4.99,-495.869 5,297.519 5,-198.34 4.99,198.34 h 5 l 4.99,-198.34 5,595.04 4.99,-892.566 5,297.526 4.99,-297.526 4.99,495.866 5,-99.17 5,297.52 4.99,-793.388 4.99,297.519 5,99.179 5,892.56 4.99,-99.18 4.99,-198.34 5,-396.7 5,-297.519 4.99,396.699 5,-198.35 4.99,198.35 h 9.99 l 9.99,595.04 4.99,-99.18 5,99.18 5,-198.35 4.99,-495.87 4.99,396.7 5,-297.52 5,-595.046 4.99,297.526 5,396.69 h 4.99 l 5,396.69 4.99,-396.69 h 9.99 l 4.99,-297.52 5,198.35 h 5 l 4.99,-99.18 4.99,595.04 5,-495.86 h 5 l 4.99,99.17 4.99,-793.388 5,396.698 9.99,198.34 5,-99.17 4.99,297.52 h 5 l 4.99,198.35 5,396.69 4.99,-694.21 5,-198.35 4.99,793.39 5,-595.04 4.99,99.17 4.99,-198.35 10,396.7 4.99,-694.219 4.99,99.179 5,-595.046 5,991.736 4.99,297.52 5,-595.04 4.99,198.35 5,-595.046 4.99,198.347 5,297.519 4.99,-99.17 h 5 l 4.99,198.35 5,-396.699 4.99,99.179 4.99,595.04 5,-991.738 h 5 l 9.99,1289.258 h 4.99 l 5,-495.87 4.99,-694.216 5,892.566 4.99,-495.87 5,-198.349 4.99,495.869 5,-694.216 4.99,694.216 4.99,297.52 5,396.69 h 5 l 4.99,-991.73 4.99,297.52 5,-99.17 9.99,1090.91 5,-198.35 4.99,-991.74 5,198.35 4.99,-396.69 5,99.17 4.99,198.35 h 5 l 4.99,297.52 5,198.34 9.98,-198.34 5,-694.219 5,892.559 4.99,-694.21 4.99,99.17 5,-595.038 5,99.172 4.99,495.866 5,-198.34 4.99,595.04 5,-396.7 4.99,-99.17 5,-396.696 4.99,495.866 9.99,396.7 5,-198.35 4.99,-396.69 4.99,198.34 h 5 l 5,198.35 4.99,-198.35 5,-297.519 4.99,396.699 h 5 l 4.99,-198.35 5,198.35 4.99,-198.35 5,198.35 4.99,396.69 5,-793.389 4.99,-297.519 h 5 l 9.99,2082.648 4.99,-1090.91 4.99,-396.7 5,495.87 5,198.35 4.99,-198.35 5,297.52 4.99,-297.52 5,-595.04 4.99,-99.17 5,198.34 4.99,-297.519 5,793.389 4.99,1983.47 5,-991.73 9.99,-1289.26 4.99,198.35 5,-595.04 4.99,694.21 4.99,-396.69 5,396.69 h 5 l 4.99,-99.17 5,-495.87 4.99,297.52 5,991.74 4.99,-1289.26 5,892.56 4.99,99.17 5,-793.38 4.99,-198.35 5,297.52 4.99,694.21 5,-793.38 4.99,297.52 5,-495.87 4.99,99.17 5,793.39 4.99,-991.73 5,793.38 h 4.99 l 5,99.18 4.99,297.52 5,-297.52 4.99,-99.18 5,-1090.906 4.99,396.696 5,-198.349 4.99,198.349 5,-495.868 4.99,396.698 9.99,1090.9 5,396.7 4.99,-793.39 5,-297.52 9.99,595.04 4.99,-198.35 5,297.52 9.99,-198.34 4.99,-198.35 5,-495.87 4.99,-198.34 5,297.52 4.99,-99.18 5,99.18 4.99,-99.18 4.99,595.04 5,-1090.906 5,-99.172 4.99,595.038 5,-99.17 4.99,-595.044 5,793.394 4.99,396.69 5,-99.17 4.99,-595.04 5,-396.698 4.99,495.868 5,198.35 4.99,892.56 h 5 l 4.99,-198.35 5,-892.56 4.99,-99.17 v 0" /><path
             id="path128"
             style="fill:none;stroke:#55a868;stroke-width:17.5;stroke-linecap:round;stroke-linejoin:round;stroke-miterlimit:10;stroke-dasharray:none;stroke-opacity:1"
             d="m 3460.11,1387.32 5,-260.52 4.99,-105.91 4.99,211.92 5,265.18 5,23.2 4.99,367.51 4.99,-1027.497 5,787.157 4.99,-982.731 5,909.401 4.99,-170.36 5,104.58 4.99,-36.85 5,-103.63 5,24.48 4.99,-402.437 4.99,5.679 5,-35.91 5,120.778 4.99,372.43 9.99,-330.16 4.99,235.42 5,-104.17 4.99,153.53 5,-291.34 4.99,77.14 5,156.99 4.99,-18.93 5,-724.036 9.99,594.046 5,666.92 4.99,-965.512 4.99,504.622 5,-445.251 5,-271.672 4.99,13.898 4.99,450.255 9.99,-345.817 5,1327.567 4.99,111.63 5,-64.47 4.99,-809.62 5,33.69 9.99,-230.47 4.99,205.88 5,-315.25 5,346.54 4.99,-244.07 4.99,449.82 5,-687.478 5,417.488 4.99,-329.39 4.99,682.65 5,-240.44 4.99,-369.6 5,1134.51 4.99,-559.71 5,-161.12 4.99,503.76 5,-559.69 5,28.26 4.99,240.29 4.99,-557.87 5,546.83 5,-510.98 4.99,120.69 4.99,-81.31 5,412.43 5,-368.63 9.98,28.06 5,151.43 9.99,-609.013 4.99,414.383 5,-342.305 4.99,148.855 5,-181.062 5,0.117 4.99,-25.527 4.99,316.532 5,-21.82 5,-318.228 4.99,220.168 4.99,530.44 5,-219.23 5,48.27 4.99,92.17 4.99,550.6 5,-825.4 4.99,-144.88 5,-86.39 5,528.92 4.99,99.88 4.99,-367.58 5,483.39 5,193.45 4.99,-728.39 4.99,-292.715 5,-159.156 5,320.921 4.99,458.04 4.99,162.84 5,-86.76 4.99,350.33 5,-517.91 4.99,-394.16 5,779.49 4.99,-14.38 10,-316.97 4.99,195.22 4.99,-449.87 5,633.69 5,-428.5 4.99,131.77 4.99,-417.62 5,-185.721 5,-61.516 4.99,-181.742 4.99,1132.929 5,-250.53 5,170.13 4.99,397.73 4.99,-936.59 5,536.56 4.99,-348.86 5,334.35 5,25.53 4.99,-563.06 4.99,-197.8 5,-50.916 5,738.376 4.99,-391.98 4.99,516.8 5,-387.55 5,772.78 4.99,-1470.7 4.99,597.1 5,-212.63 4.99,445.14 5,-490.58 5,511.92 4.99,55.91 4.99,-577.2 5,-91.3 5,128.6 4.99,599.56 4.99,112.17 5,-956.053 5,675.243 4.99,58.17 4.99,-524.88 5,298.5 5,40.93 4.99,-311.08 4.99,475.7 5,-500.34 4.99,352.46 5,-220.08 5,403.63 4.99,-615.99 4.99,564 5,-145.83 5,-461.952 4.99,-167.223 4.99,764.645 5,-680.247 5,392.187 4.99,79.83 4.99,470.95 10,-757.04 4.99,52.69 4.99,-123.29 5,-70.745 4.99,407.775 10,446.11 4.99,-162.67 4.99,-88.27 5,-238.66 5,-168.91 4.99,-45.26 4.99,-129.513 5,35.583 5,-47.548 4.99,626.708 4.99,-512.57 5,432.93 5,-274.5 4.99,27.44 5,171.56 4.99,-110.49 4.99,179.43 5,-515.199 5,579.259 4.99,-159.98 4.99,-64.74 5,83.94 5,239.69 4.99,-509.5 4.99,16.48 5,-200.493 5,454.773 4.99,22.11 4.99,-294.3 5,-41.33 5,360.09 4.99,40.99 5,-376.38 4.99,110.01 4.99,61.79 5,-248.21 5,742.4 4.99,-770.99 4.99,366.71 5,-108.72 5,-80.6 4.99,-28.11 4.99,296.86 5,29.29 5,-338.48 4.99,341.23 4.99,-363.54 5,396 4.99,-530.96 5,734.21 5,-132.48 4.99,72.86 4.99,-50 5,209.68 9.99,-862.383 9.99,1210.823 5,-1287.163 14.98,699.823 9.99,-555.44 5,2.15 9.99,341.21 4.99,-200.05 5,143.19 4.99,268.5 4.99,-459.32 5,-119.89 5,349.21 9.98,-519.532 5,723.022 5,-85.15 9.98,-664.59 10,-175.254 4.99,374.844 5,118.37 4.99,-62.67 4.99,-142.294 5,337.304 5,-245.51 4.99,137.46 4.99,18.14 5,-201.605 5,-117.723 4.99,-30.359 4.99,72.406 5,120.271 5,-72.545 4.99,292.225 4.99,58.69 5,-397.036 5,8.582 9.99,664.074 9.99,-480.29 4.99,-234.647 5,688.567 4.99,-250.34 4.99,-363.602 10,723.122 4.99,8.46 4.99,110.3 5,-854.753 5,-11.062 9.99,197.015 4.99,139.21 5,-347.913 4.99,390.813 9.99,85.14 4.99,-247.54 5,124.33 5,4.91 9.98,-325.52 5,407.49 5,-213.67 4.99,-41.31 4.99,-64.03 5,-151.996 5,382.556 4.99,-23.02 5,-497.93 4.99,406.78 5,-50.17 4.99,-213.255 5,580.575 4.99,-756.337 9.99,830.457 5,-181.17 4.99,-287.27 4.99,55.29 5,430.99 5,-443.7 4.99,132.42 4.99,439.73 5,-576.83 5,86.72 4.99,-248.656 5,262.336 4.99,38.52 5,-171.74 4.99,334.93 5,-54.1 4.99,-512.825 4.99,201.305 5,879.46 9.99,-137.57 4.99,-185.66 5,-552.21 5,-110.95 9.99,284.58 4.99,-326.662 5,258.922 4.99,-178.688 5,-336.504 4.99,309.809 4.99,-37.074 5,86.887 5,-281.739 4.99,-63.148 4.99,809.057 5,-424.27 5,122.37 4.99,-7.91 4.99,365.29 5,-606.357 5,281.277 4.99,-243.664 5,386.084 4.99,-142.61 5,-46.98 4.99,506.37 5,-657.911 4.99,524.981 5,-598.348 4.99,399.038 5,-310.98 4.99,717.7 4.99,-533.37 5,506.12 5,-137.66 4.99,532.69 4.99,-849.53 5,561.27 14.99,-509.41 4.99,-103.09 5,171.73 4.99,-180.96 5,-221.458 4.99,-28.2 5,129.008 4.99,14.68 5,-28.75 4.99,942.69 4.99,-196.46 5,-325.86 5,555.95 4.99,-228.64 5,-475.2 4.99,-143.32 5,-425.375 4.99,97.473 5,558.152 4.99,-200.8 5,-69.49 4.99,-129.2 5,233.56 4.99,294.23 4.99,4.94 5,-601.517 5,962.577 4.99,-766.62 4.99,-172.367 5,728.787 5,201.79 4.99,384.25 5,-102.82 4.99,-274.25 5,-438.55 4.99,362.5 5,-661.84 4.99,76.43 5,31.39 4.99,267.28 5,-93.06 4.99,-355.98 4.99,264.31 5,-226.73 5,-40.51 4.99,210.71 4.99,304.5 5,-22.26 5,234.88 4.99,-629.62 5,260.82 4.99,410.46 5,-442.62 4.99,-70.15 5,346.64 4.99,-278.17 4.99,-70.13 5,-45.22 5,174.13 4.99,309.27 4.99,165.26 5,-413.26 5,351.33 4.99,-560.94 5,192.63 4.99,143.56 5,-718.017 4.99,676.517 5,-625.411 4.99,466.641 5,-489.899 4.99,493.349 5,-226.29 4.99,251.18 5,627.41 4.99,85.17 5,-355.6 4.99,-3.78 4.99,-842.377 5,301.727 5,781.02 4.99,-224.23 5,-555.58 4.99,91.83 5,396.71 4.99,166.67 5,-875.98 4.99,-134.913 5,264.673 4.99,-115.9 5,312.68 4.99,-549.128 9.99,153.978 5,335.43 4.99,-96.19 9.99,419.01 5,-228.64 4.99,179.49 5,0.87 4.99,-546.59 5,5.36 4.99,-371.949 5,446.169 4.99,-1.34 5,363.18 4.99,-966.458 5,1173.628 4.99,-431.54 5,-152.53 4.99,240.2 5,-209.85 4.99,13.33 5,-280.25 4.99,366.6 5,-50.22 9.99,-381.786 4.99,94.867 5,-22.738 4.99,-186.676 5,104.934 4.99,255.469 5,319.53 4.99,563.91 9.99,-949.87 4.99,434.37 5,-13.98 5,304.28 4.99,-479.39 5,258.59 4.99,-352.12 5,608.04 4.99,-466.23 5,428.35 4.99,-814.817 5,459.377 4.99,-135.21 5,57.71 4.99,312.02 9.99,-283.13 5,223.16 4.99,168.45 4.99,-502.15 5,141.4 5,-42.13 4.99,-219.99 5,706.83 4.99,-227.97 5,-386.88 4.99,-238.447 5,67.667 4.99,265.2 5,120.8 4.99,-632.117 5,21.426 4.99,723.971 5,-204.67 9.99,-505.524 4.99,756.124 v 0" /></g></g><g
         transform="scale(10)"
         id="g130"><text
           id="text134"
           style="font-variant:normal;font-weight:normal;font-size:12px;font-family:Arial;-inkscape-font-specification:Arial;writing-mode:lr-tb;fill:#262626;fill-opacity:1;fill-rule:nonzero;stroke:none"
           transform="matrix(1,0,0,-1,375.164,396.578)"><tspan
             id="tspan132"
             y="0"
             x="0 6.673831 10.007805 16.681635 23.355467 29.355467 35.355465 38.689465 45.36327 52.037079 58.710884 65.384689 72.058495 75.392494 82.066299 86.062302 92.736107 99.40992 102.07592 108.07592 111.40992 114.07592 120.74973 127.42353 130.75752 134.09152 144.08752 152.09152 160.09552 167.10353 173.77733 177.11133 183.78514 190.45894 197.13275 201.12875 207.80255">4 da,s ahead prediction, MSE=2.60e­02</tspan></text>
</g><path
         id="path136"
         style="fill:none;stroke:#4c72b0;stroke-width:17.5;stroke-linecap:round;stroke-linejoin:round;stroke-miterlimit:10;stroke-dasharray:none;stroke-opacity:1"
         d="m 3413.75,3778.28 h 200" /><g
         transform="scale(10)"
         id="g138"><text
           id="text142"
           style="font-variant:normal;font-weight:normal;font-size:10px;font-family:Arial;-inkscape-font-specification:Arial;writing-mode:lr-tb;fill:#262626;fill-opacity:1;fill-rule:nonzero;stroke:none"
           transform="matrix(1,0,0,-1,369.375,374.328)"><tspan
             id="tspan140"
             y="0"
             x="0 7.2214894 12.783198 18.344517">Real</tspan></text>
</g><path
         id="path144"
         style="fill:none;stroke:#55a868;stroke-width:17.5;stroke-linecap:round;stroke-linejoin:round;stroke-miterlimit:10;stroke-dasharray:none;stroke-opacity:1"
         d="m 3413.75,3635 h 200" /><g
         transform="scale(10)"
         id="g146"><text
           id="text150"
           style="font-variant:normal;font-weight:normal;font-size:10px;font-family:Arial;-inkscape-font-specification:Arial;writing-mode:lr-tb;fill:#262626;fill-opacity:1;fill-rule:nonzero;stroke:none"
           transform="matrix(1,0,0,-1,369.375,360)"><tspan
             id="tspan148"
             y="0"
             x="0 7.2214894 12.783198 18.344517 23.344517 29.184517 34.746227 41.416225 47.524418">Conv+LSTM</tspan></text>
</g><path
         id="path152"
         style="fill:#eaeaf2;fill-opacity:1;fill-rule:nonzero;stroke:none"
         d="m 6323.75,305.777 h 3000 v 3600 h -3000 z" /><g
         transform="scale(10)"
         id="g154"><text
           id="text158"
           style="font-variant:normal;font-weight:normal;font-size:10px;font-family:Arial;-inkscape-font-specification:Arial;writing-mode:lr-tb;fill:#262626;fill-opacity:1;fill-rule:nonzero;stroke:none"
           transform="matrix(1,0,0,-1,643.23,16.3277)"><tspan
             id="tspan156"
             y="0"
             x="0 44.479301 50.040619 55.602325 94.52063 100.08234 105.64365 144.56235 150.12407 155.68538 194.60408 200.16545 205.7272 244.64601 250.20737 255.76913">0100200300400500</tspan></text>
<text
           id="text162"
           style="font-variant:normal;font-weight:normal;font-size:11px;font-family:Arial;-inkscape-font-specification:Arial;writing-mode:lr-tb;fill:#262626;fill-opacity:1;fill-rule:nonzero;stroke:none"
           transform="matrix(1,0,0,-1,755.336,2.2808)"><tspan
             id="tspan160"
             y="0"
             x="0 6.3441443 8.7879019 17.950903 24.068464 27.124706 30.180948 36.298512 42.416073 48.533638">Time Inde+</tspan></text>
<text
           id="text178"
           style="font-variant:normal;font-weight:normal;font-size:10px;font-family:Arial;-inkscape-font-specification:Arial;writing-mode:lr-tb;fill:#262626;fill-opacity:1;fill-rule:nonzero;stroke:none"
           transform="matrix(1,0,0,-1,619.813,55.5593)"><tspan
             id="tspan164"
             y="0"
             x="0">0</tspan><tspan
             id="tspan166"
             y="-50.810902"
             x="0">5</tspan><tspan
             id="tspan168"
             y="-101.6222"
             x="-5.5625 -0.00118164">10</tspan><tspan
             id="tspan170"
             y="-152.4335"
             x="-5.5625 -0.00118164">15</tspan><tspan
             id="tspan172"
             y="-203.2448"
             x="-5.5625 -0.00118164">20</tspan><tspan
             id="tspan174"
             y="-254.05611"
             x="-5.5625 -0.00118164">25</tspan><tspan
             id="tspan176"
             y="-304.8674"
             x="-5.5625 -0.00118164">30</tspan></text>
</g><g
         id="g180"><g
           clip-path="url(#clipPath186)"
           id="g182"><path
             id="path188"
             style="fill:none;stroke:#4c72b0;stroke-width:17.5;stroke-linecap:round;stroke-linejoin:round;stroke-miterlimit:10;stroke-dasharray:none;stroke-opacity:1"
             d="m 6460.11,1260.09 5,1050.1 5.01,-381.86 5,190.93 5.01,-859.17 5,-95.46 h 5 l 5.01,572.78 5,-572.78 5.01,-95.47 h 5 l 5.01,381.86 5,-286.39 5,-95.47 5.01,859.17 10.01,-190.92 10,-572.78 h 5.01 l 5,95.46 10.01,572.78 5,190.93 5.01,-286.39 5,-572.78 5.01,-95.47 5,95.47 5.01,-381.86 5,954.64 5,-572.78 5.01,-95.47 5,477.32 5.01,-286.39 h 5 l 5,286.39 h 5.01 l 5,190.93 5.01,-668.25 5,-190.926 5.01,381.856 5,859.17 5.01,190.93 5,286.39 5,-859.17 5.01,-477.32 5,190.93 5,95.46 5.01,-190.93 h 5 l 5.01,-95.46 5,95.46 h 5 l 5.01,381.86 h 5.01 l 10,954.63 5.01,-1241.02 10.01,-381.86 5,95.47 5,-381.86 5.01,477.32 5,95.46 5.01,-190.92 10,381.85 h 5.01 l 10.01,-381.85 5,572.78 5.01,-572.78 5,-95.47 5,668.25 5.01,-190.93 h 5 l 5.01,-95.46 5,95.46 5,763.71 5.01,-572.78 5,-381.86 h 10.01 l 5,-477.316 5.01,381.856 5,190.93 5.01,95.46 h 5 l 10.01,-381.85 h 5 l 5.01,286.39 5,572.78 5.01,286.39 5,-763.71 5,-381.85 5.01,95.46 5,-190.93 5.01,-286.39 5,763.71 10.01,-763.71 10.01,572.78 5,381.86 5.01,477.31 5,286.39 5,-763.7 5.01,-381.86 5,-477.316 5.01,381.856 5,190.93 5,-381.86 5.01,-190.926 5.01,286.396 5,-95.47 5,-286.39 h 5.01 l 5,381.86 5.01,572.78 5,-190.93 h 5 l 5.01,-95.46 5,-190.93 5.01,-95.46 5,381.85 5,-286.39 5.01,763.71 5,1241.02 5.01,-1145.56 5,-572.78 5.01,381.85 5,95.47 5,-190.93 5.01,859.17 5,-477.32 5.01,-763.7 5,668.24 5,-95.46 5.01,95.46 h 5 l 5.01,-95.46 5,-668.25 5.01,-190.92 5,-286.396 5,572.786 5.01,-190.93 5,-477.32 5.01,954.64 10,-381.86 5.01,-95.46 5,477.32 10.01,-572.78 5,95.46 5.01,572.78 5.01,-668.24 5,286.39 5,-572.786 5.01,381.856 5,190.93 5.01,-572.786 5,190.926 h 5 l 5.01,954.64 h 10 l 10.01,-572.78 5.01,286.39 5,-286.39 5,-190.93 5.01,668.24 5.01,-477.31 5,286.39 5,95.46 5.01,-95.46 5,-190.93 5.01,286.39 5,-95.46 5,-381.86 5.01,190.93 5,-190.93 5.01,-286.39 5,477.32 5,-381.85 5.01,-286.396 5,954.636 5.01,-286.39 h 5 l 5.01,-286.39 5,-381.856 10.01,859.176 5,-190.93 h 5.01 l 5,668.24 10.01,-763.7 5,95.46 5.01,-95.46 15.01,-572.786 5,668.246 h 5.01 l 5,-668.246 5.01,286.396 5,-286.396 5,477.316 5.01,95.47 h 5 l 5.01,381.85 5,-668.24 h 5 l 5.01,-286.396 h 5.01 l 5,572.786 5,-190.93 5.01,190.93 5,-190.93 5.01,477.32 10,381.85 5.01,-954.63 5,190.92 5,-477.316 5.01,477.316 5,190.93 5.01,-286.39 5,477.32 5.01,-286.39 5,-381.86 h 5.01 l 5,668.25 10.01,-572.78 5,859.17 5.01,-572.78 5,-190.93 10.01,190.93 5,381.85 5.01,-381.85 h 5 l 5.01,-381.86 5,95.47 5,763.7 5.01,-381.85 5,-190.93 5.01,-286.39 5,95.47 5,668.24 5.01,190.93 10.01,-954.64 h 5 l 5,190.93 5.01,95.46 5.01,477.32 10,-572.78 5.01,95.46 5,-190.92 5,572.78 5.01,-381.86 5,477.32 5.01,-763.71 5,286.39 15.01,-286.39 5.01,-190.926 5,859.176 5,-954.64 5.01,572.78 5.01,190.93 5,-477.32 5,190.93 5.01,477.32 5,-572.78 5.01,95.46 5,-381.856 5,286.396 5.01,190.92 5,-95.46 5,859.17 5.01,-954.63 h 5 l 5.01,286.39 5,-572.786 5.01,668.246 5,-381.85 10.01,572.78 5,-477.32 5.01,-95.46 h 5 l 5.01,190.92 5,95.47 10.01,-190.93 h 5 l 5.01,-381.856 5,190.926 5.01,-190.926 5,190.926 5,763.71 5.01,-286.39 5,-477.32 5.01,286.39 5,-190.92 5,190.92 h 5.01 l 5,-190.92 5.01,572.78 5,-859.176 5,286.396 5.01,-286.396 5.01,477.316 5,-95.46 5,286.39 5.01,-763.71 5,286.39 5,95.47 5.01,859.17 5,-95.47 5.01,-190.92 5,-381.86 5,-286.39 5.01,381.86 5,-190.93 5.01,190.93 h 10.01 l 10.01,572.78 5,-95.47 5,95.47 5.01,-190.93 5,-477.32 5.01,381.86 5,-286.39 5,-572.786 5.01,286.396 5,381.85 h 5 l 5.01,381.85 5.01,-381.85 h 10 l 5.01,-286.39 5,190.93 h 5.01 l 5,-95.47 5,572.78 5.01,-477.31 h 5 l 5.01,95.46 5,-763.71 5,381.86 10.01,190.92 5.01,-95.46 5,286.39 h 5.01 l 5,190.93 5,381.85 5.01,-668.24 5,-190.93 5.01,763.71 5,-572.78 5,95.46 5.01,-190.93 10.01,381.86 5,-668.25 5.01,95.47 5,-572.786 5.01,954.636 5,286.39 5,-572.78 5.01,190.93 5,-572.786 5,190.926 5.01,286.39 5,-95.46 h 5.01 l 5,190.93 5,-381.86 5.01,95.47 5,572.78 5.01,-954.64 h 5 l 10.01,1241.03 h 5.01 l 5,-477.32 5,-668.246 5.01,859.176 5,-477.32 5.01,-190.93 5,477.32 5,-668.246 5.01,668.246 5,286.39 5,381.85 h 5.01 l 5.01,-954.63 5,286.39 5,-95.46 10.01,1050.09 5.01,-190.92 5,-954.64 5,190.93 5.01,-381.85 5,95.46 5.01,190.93 h 5 l 5,286.39 5.01,190.92 10.01,-190.92 5,-668.25 5.01,859.17 5,-668.24 5,95.46 5.01,-572.78 5,95.464 5.01,477.316 5,-190.92 5,572.78 5.01,-381.86 5,-95.46 5.01,-381.856 5,477.316 10.01,381.86 5.01,-190.93 5,-381.85 5,190.92 h 5.01 l 5,190.93 5,-190.93 5.01,-286.39 5,381.86 h 5.01 l 5,-190.93 5,190.93 5.01,-190.93 5,190.93 5.01,381.85 5,-763.71 5.01,-286.39 h 5 l 10.01,2004.73 5,-1050.09 5.01,-381.86 5,477.32 5.01,190.93 5,-190.93 5,286.39 5.01,-286.39 5,-572.78 5.01,-95.46 5,190.92 5.01,-286.39 5,763.71 5,1909.27 5.01,-954.64 10.01,-1241.02 5,190.93 5,-572.78 5.01,668.24 5,-381.85 5.01,381.85 h 5 l 5.01,-95.46 5,-477.32 5.01,286.39 5,954.63 5,-1241.02 5.01,859.17 5,95.46 5,-763.7 5.01,-190.93 5,286.39 5.01,668.24 5,-763.7 5,286.39 5.01,-477.32 5,95.46 5.01,763.71 5,-954.63 5.01,763.7 h 5 l 5.01,95.47 5,286.39 5,-286.39 5.01,-95.47 5,-1050.096 5,381.856 5.01,-190.93 5,190.93 5.01,-477.32 5,381.86 10.01,1050.09 5,381.86 5.01,-763.71 5,-286.39 10.01,572.78 5.01,-190.93 5,286.39 10.01,-190.92 5,-190.93 5.01,-477.32 5,-190.92 5,286.39 5.01,-95.47 5,95.47 5.01,-95.47 5,572.78 5.01,-1050.096 5,-95.464 5,572.78 5.01,-95.46 5,-572.785 5.01,763.715 5,381.85 5,-95.46 5.01,-572.78 5,-381.86 5.01,477.32 5,190.93 5,859.17 h 5.01 l 5.01,-190.93 5,-859.17 5,-95.46 v 0" /><path
             id="path190"
             style="fill:none;stroke:#55a868;stroke-width:17.5;stroke-linecap:round;stroke-linejoin:round;stroke-miterlimit:10;stroke-dasharray:none;stroke-opacity:1"
             d="m 6460.11,1453.44 5,-200.81 5.01,255.56 5,-151.96 5.01,520 10,-644.92 5.01,163.54 5,-58.97 5.01,-353.751 5,515.841 5.01,-516.111 10,594.371 5.01,-85.75 5,-334.84 5.01,-439.058 5,269.609 5,564.129 5.01,75.95 5,10.55 5.01,35.24 5,-233.27 5,81.96 5.01,166.18 5,-389.24 5.01,559.04 10.01,-663.96 5,68.89 5,129.75 5.01,-591.566 5,500.706 5.01,-108.16 5,-17.32 5,-247.789 5.01,420.149 5,248.09 5.01,-540.3 5,67.67 5.01,281.02 5,137.54 5.01,271.75 5,-417.04 5,412.44 5.01,-212.29 5,-284.52 5,-120.88 5.01,-261.84 5,536.81 5.01,-46.83 5,-93.86 5,-1.31 5.01,819.82 5.01,-1039.82 5,333.55 5,29.53 5.01,-69.06 5,-36.85 5.01,-2.51 5,-101.17 5,318.65 5.01,-356.78 5,84.31 5.01,433.99 5,245.68 5,-450.18 15.02,470.98 5,-1252.09 5.01,746.42 5,133.9 5,300.46 5.01,-81.85 5,-477 5.01,-72.14 5,-141.13 5,506.29 5.01,-740.122 5,255.152 5.01,352.07 10,-378.05 5.01,239.62 5,156.7 5.01,191.75 5,-270.66 5.01,-65.77 5,-200.53 5,182.9 5.01,-330.83 5,226.63 5.01,-165.28 5,669.25 5,-326.72 5.01,-436.54 5,-557.036 5.01,1006.806 5,236.85 5.01,-111.57 5,261.32 5.01,144.8 5,-604.56 5,263.94 5.01,155.7 5,-278.27 5,-449.77 5.01,179.1 5,922.35 5.01,-596.34 5,632.4 5,-382.84 5.01,-252.67 5.01,-180.34 5,-495.382 5,459.232 5.01,232.19 5,-160.44 5.01,-21.94 5,-185.9 5,-122.76 5.01,515.94 5,140.76 5.01,-480.23 5,227.21 5,1151.57 5.01,-358.64 10.01,-1394.313 5,446.263 5.01,-90.75 5,-158.66 5,577.57 5.01,65.91 5,-63.85 5.01,-44.12 5,309.79 5,-237.87 5.01,-148.76 5,-463.41 5.01,-75.14 5,638.19 5.01,-666.58 5,-165.665 5,452.925 5.01,-312.046 5,431.606 5.01,145.4 10,-235.48 5.01,377.19 5,-478.45 5.01,9.96 5,-413.14 5,848.45 5.01,-734.305 5.01,813.695 5,-189.48 5,-63.8 5.01,-14.37 5,-58.03 5.01,-87.86 5,-228.5 5,218.4 5.01,135.64 5,684.6 5,-611.19 5.01,-226.27 5,383.95 5.01,121 5,-509.86 5,312.75 5.01,-105.89 5.01,-200.29 5,143.02 5,-316.8 5.01,403.77 5,283.12 5.01,-193.71 5,72.21 5,-333.64 5.01,250.98 5,-425.19 5.01,1.87 10,1063.44 5.01,-256.19 5,-189.79 5.01,-12.19 5,-190.53 5.01,-442.5 5,81.26 5,-8.69 10.01,316.9 5.01,-341.66 5,144.92 5,90.49 5.01,-426.37 5,-98.465 5.01,292.975 5,155.87 5.01,-25.8 5,338.22 5,-347.89 10.01,-242.55 5.01,-48.42 5,381.14 5,-333.89 5.01,76.78 5,328.87 10.01,-498.75 5,178.6 5.01,133.5 5.01,-485.89 5,314.01 5,46.06 5.01,-110.06 5,378.97 5.01,-527.167 5,447.337 5,-240.31 5.01,268.98 5,-300.71 5,-11.22 5.01,555.85 5,-623.51 5.01,137.77 5,935.41 5.01,-515.82 5,-89.54 10.01,-327.32 5,-23.43 5.01,117.73 5,212.02 5.01,-394.13 10,154.05 5.01,-171.16 5,289.71 5.01,-251.94 5,650.75 5.01,-868.486 5,574.746 5,148.39 5.01,-557.72 5,396.03 5.01,100.77 5,-328.36 5,251.2 5.01,97.81 5,-101.42 5.01,-40.68 5,107.39 10.01,-550.597 5.01,96.807 5,59.01 5,411.68 5.01,-565.306 5,416.786 5,-628.892 10.01,588.712 5.01,373.8 5,-111.45 5,-720.843 5.01,477.223 5,190.06 5.01,-162.45 10,-598.848 5.01,69.644 5.01,417.004 5,-293.07 5,175.51 5.01,748.33 5,-497.03 5.01,-245.59 5,218.23 10.01,-284.73 5,113.03 5,-215.35 5.01,-17.619 5,422.499 5.01,-424.511 5,90.841 10.01,592.6 5.01,226.83 5,-311.03 5,-486.48 5.01,-94.61 5,229.09 5.01,-252.241 5,346.831 5,-180.39 5.01,-249.421 5,-16.082 5.01,318.733 5,-178.38 5.01,297.94 5,189.46 5,-388.98 5.01,-116.3 5,204.99 5.01,-266.131 5,55.511 5,675.44 5.01,-666.46 5,238.74 5.01,0.46 5,-169.68 5,654.77 5.01,-725.77 5.01,269.43 5,-41.63 5,172.3 5.01,-363.65 5,81.78 5,235.83 5.01,-504.138 5,575.428 5.01,-51.24 5,365.52 5,113.48 5.01,-453.65 5,389.95 5.01,-565.82 5,3.54 5.01,766.37 5,-792.21 5.01,324.28 5,-267.41 5,150.94 5.01,-30.09 5,-46.71 5.01,127.1 5,-179.96 5,25.33 5.01,-51.36 5,-204.87 5,53.49 5.01,-75.73 5.01,-0.67 5,-118.36 5,177.13 5.01,96.59 5,-269.454 5.01,485.084 5,363.31 5,-85.21 5.01,-313.72 5,-75.25 5.01,4.69 5,-245.45 5,337.74 5.01,-810.98 5,775.9 5.01,-71.45 10.01,629.81 5,-336.83 5,-234.04 5.01,691.08 5,-748.38 5.01,168.78 5,218.55 10.01,-613.37 5,292.4 5.01,38.97 5,131.51 5.01,-177.69 5,151.69 5.01,439.3 5,-776.3 5,-27.24 5.01,370.45 10,-19.45 5.01,-369.56 5,500.74 5.01,-267.88 5,-348.2 5,-238.422 5.01,314.652 5,668.37 5.01,-251.1 5,36.3 10.01,-493.04 5.01,531 5,135.63 5,-484.89 5.01,127.87 5,524.27 5.01,-475.96 5,180.77 5,-77.43 5.01,-343.23 5,-261.79 5,881.28 5.01,0.82 5.01,-274.94 5,-376.02 5,70.84 5.01,635.68 5,19.34 5.01,229.64 5,-649.88 5,-57.99 5.01,-569.954 5,329.144 5.01,-54.68 5,331.42 5,-48.7 10.01,838.37 5.01,-741.57 5,-296.38 5.01,456.75 5,-304.37 5,207.19 5.01,-65.42 5,-119.16 5.01,278.97 5,-349.27 5,-108.55 5.01,53.15 5,358.2 5.01,-306.73 5,-127 5.01,-19.06 5,749.35 5.01,-114.81 5,-345.08 5,-461.643 5.01,221.743 5,-59.35 5,415.35 5.01,257.65 5,-623.73 5.01,-161.081 5,789.481 5,-377.49 5.01,172.72 5,-112.05 5.01,-888.012 5,962.512 5.01,-165.83 10.01,787.67 10,-1168.899 5.01,135.319 5,92.12 5.01,282.08 5,169.48 5,-203.95 5.01,174.75 5,-41.94 5.01,-375.54 5,53.53 5.01,14.68 5,981.64 5,-1202.67 5.01,90.83 5,181.86 5.01,-104.6 5,-162.1 5,774.88 5.01,-567.3 5,310.56 5.01,611.7 5,-449.36 5.01,-293.5 5,332.76 5.01,-614.81 5,265.43 5,-643.732 5.01,628.342 5,13.52 5,-349 5.01,872.87 5,-111.38 5.01,-424.9 5,-164.71 10.01,381.13 5,-835.657 5.01,269.187 5,35.97 5.01,-84.4 5,417.04 5.01,152.94 5,-271.36 5,-100.22 10.01,232.24 5,-123.26 10.01,311.25 5.01,-97.54 5,166.34 5,-2.75 5.01,42.52 5,-80.91 5.01,-159.58 5,-244.44 5.01,-377.93 5,-57.437 10.01,1181.527 5,-620.46 5.01,218.28 5,81.97 5.01,-212.13 5,310.73 5,-318.27 5.01,-176.74 5,799.79 10.01,-968.95 5.01,547.5 5,-343.36 10.01,178.46 5,-23.03 5.01,370.86 5,-635.88 5,512.9 5.01,-383.79 5,40.23 5.01,-79.11 5,-149.01 5,373.36 5.01,228.71 5.01,134.42 5,-426.4 5,353.14 v 0" /></g></g><g
         transform="scale(10)"
         id="g192"><text
           id="text196"
           style="font-variant:normal;font-weight:normal;font-size:12px;font-family:Arial;-inkscape-font-specification:Arial;writing-mode:lr-tb;fill:#262626;fill-opacity:1;fill-rule:nonzero;stroke:none"
           transform="matrix(1,0,0,-1,675.164,396.578)"><tspan
             id="tspan194"
             y="0"
             x="0 6.6738067 10.007805 16.681612 23.355417 29.355417 35.355419 38.689415 45.363224 52.037029 58.710835 65.384644 72.058449 75.392448 82.066254 86.062256 92.736061 99.409866 102.07587 108.07587 111.40987 114.07587 120.74967 127.42348 130.75748 134.09148 144.08748 152.09148 160.09547 167.10349 173.77733 177.11128 183.78514 190.459 197.13284 201.12885 207.8027">6 da,s ahead prediction, MSE=2.42e­02</tspan></text>
</g><path
         id="path198"
         style="fill:none;stroke:#4c72b0;stroke-width:17.5;stroke-linecap:round;stroke-linejoin:round;stroke-miterlimit:10;stroke-dasharray:none;stroke-opacity:1"
         d="m 6413.75,3778.28 h 200" /><g
         transform="scale(10)"
         id="g200"><text
           id="text204"
           style="font-variant:normal;font-weight:normal;font-size:10px;font-family:Arial;-inkscape-font-specification:Arial;writing-mode:lr-tb;fill:#262626;fill-opacity:1;fill-rule:nonzero;stroke:none"
           transform="matrix(1,0,0,-1,669.375,374.328)"><tspan
             id="tspan202"
             y="0"
             x="0 7.2214646 12.783174 18.344492">Real</tspan></text>
</g><path
         id="path206"
         style="fill:none;stroke:#55a868;stroke-width:17.5;stroke-linecap:round;stroke-linejoin:round;stroke-miterlimit:10;stroke-dasharray:none;stroke-opacity:1"
         d="m 6413.75,3635 h 200" /><g
         transform="scale(10)"
         id="g208"><text
           id="text212"
           style="font-variant:normal;font-weight:normal;font-size:10px;font-family:Arial;-inkscape-font-specification:Arial;writing-mode:lr-tb;fill:#262626;fill-opacity:1;fill-rule:nonzero;stroke:none"
           transform="matrix(1,0,0,-1,669.375,360)"><tspan
             id="tspan210"
             y="0"
             x="0 7.2214646 12.783174 18.344492 23.344492 29.184492 34.746201 41.416203 47.524395">Conv+LSTM</tspan></text>
</g></g></g></svg>