<?xml version="1.0" encoding="UTF-8" standalone="no"?>
<svg
   xmlns:dc="http://purl.org/dc/elements/1.1/"
   xmlns:cc="http://creativecommons.org/ns#"
   xmlns:rdf="http://www.w3.org/1999/02/22-rdf-syntax-ns#"
   xmlns:svg="http://www.w3.org/2000/svg"
   xmlns="http://www.w3.org/2000/svg"
   viewBox="0 0 1243.1733 540.37335"
   height="540.37335"
   width="1243.1733"
   xml:space="preserve"
   id="svg2"
   version="1.1"><metadata
     id="metadata8"><rdf:RDF><cc:Work
         rdf:about=""><dc:format>image/svg+xml</dc:format><dc:type
           rdf:resource="http://purl.org/dc/dcmitype/StillImage" /></cc:Work></rdf:RDF></metadata><defs
     id="defs6"><clipPath
       id="clipPath56"
       clipPathUnits="userSpaceOnUse"><path
         id="path54"
         d="m 323.797,305.797 h 3000 v 3600 h -3000 z" /></clipPath><clipPath
       id="clipPath120"
       clipPathUnits="userSpaceOnUse"><path
         id="path118"
         d="m 3324,305.797 h 3000 v 3600 H 3324 Z" /></clipPath><clipPath
       id="clipPath188"
       clipPathUnits="userSpaceOnUse"><path
         id="path186"
         d="m 6324,305.797 h 3000 v 3600 H 6324 Z" /></clipPath></defs><g
     transform="matrix(1.3333333,0,0,-1.3333333,0,540.37333)"
     id="g10"><g
       transform="scale(0.1)"
       id="g12"><path
         id="path14"
         style="fill:#ffffff;fill-opacity:1;fill-rule:nonzero;stroke:none"
         d="M 0,0 H 9323.75 V 4052.81 H 0 Z" /><path
         id="path16"
         style="fill:#eaeaf2;fill-opacity:1;fill-rule:nonzero;stroke:none"
         d="m 323.746,305.777 h 3000 v 3600 h -3000 z" /><g
         transform="scale(10)"
         id="g18"><text
           id="text22"
           style="font-variant:normal;font-weight:normal;font-size:10px;font-family:Arial;-inkscape-font-specification:Arial;writing-mode:lr-tb;fill:#262626;fill-opacity:1;fill-rule:nonzero;stroke:none"
           transform="matrix(1,0,0,-1,43.2297,16.3277)"><tspan
             id="tspan20"
             y="0"
             x="0 44.387501 49.94883 55.510551 94.337555 99.899277 105.4606 144.2876 149.84932 155.41066 194.23766 199.79936 205.36069 244.18799 249.7493 255.311">0100200300400500</tspan></text>
<text
           id="text26"
           style="font-variant:normal;font-weight:normal;font-size:11px;font-family:Arial;-inkscape-font-specification:Arial;writing-mode:lr-tb;fill:#262626;fill-opacity:1;fill-rule:nonzero;stroke:none"
           transform="matrix(1,0,0,-1,155.3357,2.2808)"><tspan
             id="tspan24"
             y="0"
             x="0 6.3441443 8.7878904 17.95089 24.068464 27.12472 30.180582 36.29855 42.416122 48.533699">Time Index</tspan></text>
<text
           id="text40"
           style="font-variant:normal;font-weight:normal;font-size:10px;font-family:Arial;-inkscape-font-specification:Arial;writing-mode:lr-tb;fill:#262626;fill-opacity:1;fill-rule:nonzero;stroke:none"
           transform="matrix(1,0,0,-1,14.2497,72.7808)"><tspan
             id="tspan28"
             y="0"
             x="0 5.5613275">30</tspan><tspan
             id="tspan30"
             y="-53.921501"
             x="0 5.5613275">40</tspan><tspan
             id="tspan32"
             y="-107.843"
             x="0 5.5613275">50</tspan><tspan
             id="tspan34"
             y="-161.7645"
             x="0 5.5613275">60</tspan><tspan
             id="tspan36"
             y="-215.686"
             x="0 5.5613275">70</tspan><tspan
             id="tspan38"
             y="-269.60751"
             x="0 5.5613275">80</tspan></text>
<text
           id="text44"
           style="font-variant:normal;font-weight:normal;font-size:11px;font-family:Arial;-inkscape-font-specification:Arial;writing-mode:lr-tb;fill:#262626;fill-opacity:1;fill-rule:nonzero;stroke:none"
           transform="matrix(0,1,1,0,7.96836,136.82)"><tspan
             id="tspan42"
             y="0"
             x="0 7.3369999 13.454575 17.117575 19.56171 25.06171 28.117575 34.235538 39.735538 45.853115 49.516113 55.634079 61.751656 67.869232 70.925468 73.981712 80.099304 89.262299 95.38028 101.49786 105.16087 111.27884 114.33469 120.45267 124.11567 130.23326">Paris average temperature </tspan></text>
<text
           id="text48"
           style="font-variant:normal;font-weight:normal;font-size:11px;font-family:Arial;-inkscape-font-specification:Arial;writing-mode:lr-tb;fill:#262626;fill-opacity:1;fill-rule:nonzero;stroke:none"
           transform="matrix(0,1,1,0,7.96836,270.109)"><tspan
             id="tspan46"
             y="0"
             x="0 3.6630001 10.382145">(F)</tspan></text>
</g><g
         id="g50"><g
           clip-path="url(#clipPath56)"
           id="g52"><path
             id="path58"
             style="fill:none;stroke:#4c72b0;stroke-width:17.5;stroke-linecap:round;stroke-linejoin:round;stroke-miterlimit:10;stroke-dasharray:none;stroke-opacity:1"
             d="m 460.109,1657.52 4.996,-333.82 4.993,-22.78 4.996,-104.01 4.996,146.11 4.992,34.17 4.996,310.54 4.996,-442.78 4.996,-110.45 4.993,210.5 4.996,584.92 4.996,84.69 4.992,-283.3 4.996,-152.05 4.996,38.14 4.996,199.6 4.992,-16.84 4.996,-83.71 4.997,39.13 4.996,-225.85 h 4.992 l 4.996,-116.88 4.996,-176.81 4.992,-58.94 9.992,-263.491 4.996,-7.429 4.993,115.4 4.996,89.15 4.996,279.83 4.992,-9.41 4.996,-104.01 4.996,78.26 4.996,296.67 4.993,157 9.992,-310.54 4.996,475.47 4.992,-51.02 4.996,-245.16 4.996,-64.38 4.992,244.67 4.996,-181.28 4.997,-79.24 4.996,-1.98 4.992,-148.59 9.992,-512.61 4.992,-86.672 4.996,-114.41 4.996,20.305 4.996,445.257 4.993,94.6 4.996,49.53 4.996,168.39 4.992,-31.7 4.996,365.52 4.996,-83.21 4.996,-10.4 4.993,-243.68 4.996,-537.374 4.996,-297.168 4.996,14.364 4.992,123.82 4.996,256.058 4.996,356.6 4.992,68.35 4.996,-50.02 4.997,-165.92 4.996,-101.04 4.992,-55.47 4.996,64.39 4.996,-1.49 4.992,175.33 4.996,124.81 4.996,-273.39 4.996,-143.14 9.989,330.85 4.996,241.69 9.988,-266.95 4.996,-219.41 4.996,54.97 4.993,-364.519 4.996,-95.59 4.996,227.829 4.996,-297.168 4.992,19.812 4.996,158.488 4.996,-53.488 4.992,231.296 4.996,417.02 4.997,-135.21 9.988,-489.332 4.996,72.804 4.996,-78.254 4.992,402.662 9.992,-179.79 4.996,-168.391 9.989,476.951 4.996,192.17 4.996,-26.25 4.992,65.37 4.996,-95.09 9.986,-481.41 5,-39.124 4.99,265.964 5,107.47 4.99,19.32 5,160.47 5,-45.56 4.99,-58.94 4.99,-116.89 5,181.27 9.99,210.99 4.99,-152.05 5,107.48 5,33.18 4.99,-14.36 4.99,10.4 5,-28.23 4.99,-0.99 5,185.73 4.99,-272.9 5,-95.1 4.99,196.13 5,-80.23 5,-55.97 4.99,237.24 4.99,13.37 5,-440.79 5,79.73 4.99,-4.45 4.99,137.19 5,314.01 5,-102.03 4.99,-347.68 4.99,-53 5,22.78 4.99,99.55 5,137.2 5,106.48 4.99,-217.43 4.99,76.77 5,-134.71 5,98.55 4.99,-10.39 4.99,73.3 5,160.96 5,41.11 9.98,191.67 5,-142.14 5,-482.9 4.99,-15.35 4.99,128.28 5,252.09 4.99,70.33 5,-52.5 5,-3.96 4.99,-12.88 4.99,-212.47 10,-280.82 4.99,-19.32 4.99,372.45 5,127.28 5,38.14 4.99,465.56 4.99,111.94 5,156.01 5,-142.15 4.99,-7.43 4.99,-116.39 9.99,-457.63 5,-11.39 5,-65.88 4.99,-135.7 14.99,302.61 4.99,-29.71 4.99,-89.65 5,-385.82 9.99,137.19 4.99,256.06 5,74.79 4.99,13.37 5,6.44 5,-16.35 4.99,-104.5 4.99,117.88 5,91.62 5,21.79 4.99,-33.68 4.99,97.57 5,51.02 5,-59.43 4.99,68.84 4.99,87.17 5,3.96 5,76.77 4.99,110.44 4.99,-50.02 5,-124.81 4.99,77.26 5,-273.88 5,41.6 4.99,265.96 4.99,139.18 5,187.71 5,316.48 4.99,-430.4 4.99,34.18 5,-533.91 5,48.04 4.99,-20.8 4.99,65.37 5,25.76 5,-3.47 4.99,-209.5 4.99,-50.52 5,219.41 4.99,299.64 5,-9.9 5,-36.65 9.98,387.31 5,19.8 5,-394.23 4.99,-8.43 4.99,155.03 5,310.54 5,234.26 4.99,120.35 4.99,33.19 5,-122.34 5,2.98 4.99,151.06 9.99,-601.27 4.99,-92.12 10,106.48 4.99,274.88 4.99,160.47 5,-403.15 5,-198.61 4.99,-29.72 4.99,255.07 5,151.56 9.99,-229.32 4.99,-238.23 5,43.09 5,119.86 4.99,214.95 5,-59.43 4.99,97.56 4.99,-11.39 5,-25.75 5,249.62 4.99,390.28 9.99,334.31 9.99,-1253.05 4.99,35.16 5,176.82 5,-73.3 4.99,-128.28 4.99,213.46 5,73.3 4.99,-159.97 5,272.4 5,-57.45 4.99,-223.37 4.99,10.9 5,157.49 5,-32.68 4.99,-89.65 4.99,-293.2 5,-69.34 5,-97.08 4.99,254.58 4.99,51.01 5,-28.23 5,-42.1 4.99,77.76 5,-137.19 9.98,49.03 5,107.48 5,178.79 14.98,321.93 5,1.49 4.99,-152.55 4.99,-241.2 5,-25.75 5,175.33 4.99,-344.72 4.99,-123.82 5,39.63 5,-13.88 4.99,-233.76 5,2.97 4.99,84.69 4.99,-136.7 5,-60.42 5,228.32 4.99,126.3 4.99,167.4 5,-40.61 9.99,92.62 4.99,10.89 5,-162.95 5,-321.93 4.99,-14.85 4.99,128.77 5,291.22 14.99,-316.48 4.99,-37.15 4.99,207.53 5,-134.23 14.98,-105.98 5,196.62 5,-338.27 4.99,-448.73 4.99,438.82 5,109.46 5,9.41 4.99,-72.81 5,-32.69 4.99,-77.76 5,57.46 4.99,136.69 5,42.1 4.99,299.15 4.99,-69.34 5,-346.69 5,-65.87 4.99,64.87 4.99,-19.31 10,-195.14 4.99,-2.47 4.99,-231.8 5,282.81 5,150.56 4.99,-92.61 5,161.46 4.99,-365.52 5,-101.53 4.99,-9.41 5,-46.06 4.99,116.88 4.99,267.95 5,15.35 5,-168.39 4.99,-63.4 4.99,-168.39 5,63.89 5,-67.36 4.99,-262.99 4.99,-66.86 5,87.17 5,-39.13 4.99,-48.04 5,91.62 4.99,-35.66 5,-233.28 4.99,188.21 5,65.87 9.98,-9.41 5,-300.63 5,222.87 4.99,327.88 4.99,7.43 5,-50.02 5,109.95 4.99,178.79 5,-26.74 4.99,-39.62 5,-192.17 9.99,-461.11 4.99,-22.78 5,12.38 4.99,-157.993 5,-216.434 4.99,365.017 4.99,589.38 5,24.77 5,-232.78 4.99,-312.52 4.99,213.95 5,-175.32 5,275.37 4.99,145.61 5,58.94 4.99,-55.96 5,217.92 4.99,-284.79 5,383.84 4.99,-157.99 5,-218.91 4.99,49.52 5,-14.36 4.99,150.07 9.99,-378.39 5,276.86 4.99,-227.34 4.99,-424.941 5,-12.383 5,-112.43 4.99,80.731 5,475.963 4.99,227.33 5,-287.75 4.99,71.81 5,-304.1 9.99,707.26 4.99,-34.18 9.99,-546.78 4.99,76.27 10,398.7 4.99,-30.21 5,-99.06 4.99,9.41 5,-373.93 4.99,-66.37 9.99,-194.148 5,-147.098 4.99,49.527 5,-39.129 4.99,105.496 9.99,611.172 5,-146.11 4.99,-22.28 4.99,129.76 5,366.51 5,27.73 4.99,52 5,-114.9 4.99,-414.05 5,-0.99 4.99,-163.45 5,61.42 4.99,248.63 5,134.22 4.99,34.17 5,-354.12 4.99,-54.48 5,227.33 9.99,98.07 4.99,381.36 4.99,-447.73 5,-158.98 5,3.96 4.99,102.02 5,-208.51 9.99,448.23 4.99,23.28 9.99,-611.67 5,80.73 4.99,24.76 5,333.82 4.99,-274.88 4.99,14.37 5,-149.58 5,46.06 4.99,329.36 5,-177.31 4.99,48.04 5,105.99 4.99,-70.33 5,314.5 4.99,234.27 9.99,-562.63 5,89.14 4.99,196.63 5,-147.59 4.99,208.51 5,133.72 4.99,44.58 4.99,-88.65 5,-459.13 5,27.24 4.99,-126.29 5,20.8 4.99,38.13 5,-31.69 4.99,100.05 5,182.26 4.99,-309.06 5,-150.07 4.99,202.57 5,42.1 4.99,-42.1 5,278.35 4.99,106.48 5,258.04 4.99,-156.01 4.99,317.97 5,51.51 5,37.14 4.99,102.03 5,15.36 4.99,-25.76 5,-364.03 4.99,-492.3 5,297.16 4.99,392.26 5,139.17 4.99,33.19 5,-222.88 4.99,39.13 5,-67.36 9.99,281.81 4.99,-33.18 v 0" /><path
             id="path60"
             style="fill:none;stroke:#55a868;stroke-width:17.5;stroke-linecap:round;stroke-linejoin:round;stroke-miterlimit:10;stroke-dasharray:none;stroke-opacity:1"
             d="m 460.109,1561.53 4.996,132.84 4.993,-249.94 4.996,-338.38 4.996,-13.58 4.992,86.06 4.996,256.63 4.996,-38.33 4.996,51.31 4.993,103.47 4.996,223.66 4.996,-373.34 9.988,491.61 4.996,-411.24 4.996,275.52 4.992,-143.19 4.996,33.83 4.997,-147.66 4.996,195.26 4.992,-111.9 4.996,188.77 4.996,-379.23 4.992,-89.28 9.992,-267.88 4.996,-298.544 4.993,543.774 4.996,135.57 4.996,-6.57 4.992,-52.2 4.996,-18.27 4.996,-168.01 4.996,43.6 4.993,163 4.996,285.14 4.996,109.01 4.996,-271.38 4.992,226.75 4.996,79.66 4.996,-362.17 4.992,-181.9 4.996,317.58 4.997,68.48 4.996,-108.99 4.992,-189.36 4.996,-104.55 4.996,-46.27 4.992,-227.734 4.996,-55.234 4.996,75.406 4.996,-281.844 4.993,539.236 4.996,-322.079 4.996,480.449 4.992,93.55 4.996,-160.84 4.996,259.05 4.996,-180.75 4.993,88.51 4.996,-253.86 4.996,81.09 4.996,138.49 4.992,-468.09 4.996,90.71 4.996,338.35 4.992,-64.22 4.996,-298 4.997,291.96 9.988,-633.142 4.996,-37.585 4.996,104.535 4.992,27.465 4.996,142.136 4.996,238.261 9.989,-268.925 4.996,-156.094 4.996,419.769 4.996,-88.25 4.992,189.51 4.996,-114.26 4.996,140.16 4.993,-88.67 4.996,-184.65 4.996,179.81 4.996,-234.25 4.992,-56.516 4.996,-164.219 4.996,-69.531 4.992,27.554 4.996,-82.753 4.997,74.793 4.996,494.682 4.992,-313.671 4.996,31.364 4.996,53.855 4.992,-189.168 4.996,281.1 4.996,-72.81 4.996,-162.599 4.993,76.743 4.996,11.515 4.996,98.921 4.996,318.6 4.992,200.1 4.996,-53.59 4.996,-69.58 4.99,-314.14 9.99,175.51 5,82.28 4.99,105.43 5,-324.84 5,272.08 4.99,17.19 4.99,-88.07 5,123.93 5,214.06 4.99,-318.53 4.99,82.82 5,-96.36 5,-225.35 4.99,392.55 4.99,28.87 5,-115.96 4.99,82.29 5,-34.42 4.99,234.84 9.99,-396.08 10,314.11 4.99,-507.22 4.99,396.48 5,-54.96 5,-155.52 4.99,45.29 4.99,-33.82 5,-110.09 5,299.44 4.99,10.17 4.99,-226.36 5,185.04 4.99,-19.56 5,50.25 5,137.48 4.99,-70.25 4.99,-157.69 5,-37.97 5,-52.46 4.99,3.03 4.99,-124.62 5,248.6 5,89.98 4.99,220.5 9.99,-247.85 5,3.05 4.99,-174.23 4.99,-80.16 5,103.76 4.99,330.97 5,-41.76 5,18.85 4.99,72.7 4.99,-222.33 5,214.21 5,-150.57 4.99,-271.9 4.99,-97.3 10,397.87 4.99,115.18 4.99,-101.91 5,522.58 5,-72.63 4.99,144.75 4.99,-45.2 5,33.38 4.99,-484.97 5,47.82 5,-117.81 4.99,59.78 4.99,24.31 5,319.74 5,-66.82 4.99,-11.07 9.99,-484.17 5,-45.42 4.99,-84.47 4.99,148.43 5,95.59 4.99,117.49 5,-165.81 5,132.34 4.99,163.77 4.99,27.97 5,51.56 5,-4.59 4.99,1.7 4.99,295.34 5,14.5 5,-399.3 4.99,251.15 4.99,-212.81 5,241.54 5,-60.84 4.99,162.04 4.99,32.78 5,123.9 4.99,-137.6 5,48.94 5,-186.71 4.99,-124.79 4.99,250.1 5,21.35 5,-51.67 4.99,146.83 4.99,-32.99 5,-136.64 9.99,-172.52 4.99,193.88 5,-241.72 5,342.1 4.99,-24.17 4.99,-369.19 5,190.09 4.99,-226.47 5,105.27 5,154.3 4.99,60.68 4.99,-32.23 5,239.81 5,185.85 4.99,-478.03 4.99,104.2 5,342.84 5,-296.67 9.98,245.12 5,-130.78 5,234 4.99,-124.59 5,22.32 4.99,534 4.99,-633.06 5,-127.08 5,147.09 4.99,55.84 4.99,-65.49 5,351.1 5,-223.04 4.99,-141.79 4.99,-6.57 5,-46.23 5,319.73 4.99,-109.26 4.99,23.68 5,201.15 5,-83.07 4.99,-52.71 14.98,-320.91 5,351.03 5,-326.02 4.99,393.49 4.99,48.21 5,98.37 5,38.88 4.99,227.1 4.99,-412.53 5,-548.21 5,266.41 4.99,-164.95 4.99,114.95 5,183.82 4.99,-13.01 5,-34.53 5,109.21 4.99,-151.63 4.99,-32.77 5,12.19 5,-343.9 4.99,354.08 4.99,-152.3 5,44.06 9.99,-241.84 4.99,280.8 5,-43.09 5,-10.22 4.99,76.33 5,-294.46 4.99,155.15 4.99,73.35 5,49.74 5,-43.61 4.99,367.51 4.99,-165.7 5,-80.61 9.99,236.48 4.99,1.24 5,-90.13 5,-304.72 4.99,119.53 4.99,-278.9 5,-53.58 5,203.65 4.99,363.68 5,-350.11 4.99,1.82 4.99,-210.03 5,-60.9 5,97.67 4.99,-73.97 4.99,7.74 5,54.5 5,188.16 4.99,-224.6 4.99,202.66 5,8.35 5,-172.66 4.99,-274.81 4.99,24.89 5,80.4 5,-187.47 4.99,455.61 5,-121.91 4.99,30.43 4.99,-201.27 5,197 5,359.77 4.99,-313.41 4.99,-200.6 5,91.73 5,-179.83 4.99,-64.14 4.99,-167.48 5,-8.12 5,252.79 4.99,-326.21 9.99,179.89 5,10.44 4.99,-89.95 5,247.23 4.99,-145.34 4.99,-13.68 5,77.07 5,-50.37 4.99,133.75 9.99,-213.81 5,-48.65 4.99,20.21 4.99,-167.68 10,230.45 4.99,-259.73 5,120.83 4.99,-27.3 5,-51.26 4.99,-29.89 5,-54.29 4.99,-17.17 4.99,-323.04 5,84.29 9.99,367.07 4.99,-118.15 10,237.51 4.99,-219.77 4.99,-97.65 5,-232.98 9.99,46.35 5,283.03 4.99,-276.34 5,-91.62 4.99,222.65 5,-154.47 4.99,-18.95 4.99,-6.07 5,-133.91 5,64.04 4.99,-77.61 4.99,92.61 5,236.78 5,-66.54 4.99,133.14 5,10.27 4.99,-23.73 5,345.62 4.99,-274.85 5,-379.92 4.99,-19.03 5,65.78 4.99,-122.16 5,161.14 4.99,-231.997 9.99,547.747 5,-208.34 4.99,137.94 4.99,-392.44 5,133.53 5,-37.66 9.99,254.28 4.99,73.18 5,-397.48 4.99,5.13 5,112.65 9.99,552.01 4.99,-432.07 5,-95.31 4.99,196.63 4.99,121.1 5,-164.41 5,-338.39 4.99,124.92 4.99,153.94 5,-151.51 5,-382.772 4.99,166.09 5,221.192 4.99,-19.1 5,-129.5 4.99,147.48 5,-167.65 4.99,418.91 5,-322.18 4.99,369.13 5,-39.13 4.99,0.79 4.99,-241.02 5,12.88 5,129.08 9.99,77.29 4.99,-33.92 5,57.56 4.99,-98.15 5,-258.04 4.99,-576.028 5,236.605 4.99,313.523 5,228.06 4.99,-820.946 4.99,264.649 10,750.647 4.99,-229.89 4.99,-113.45 5,331.4 5,-13.52 4.99,104.04 5,1.16 4.99,-163.07 5,-46.65 4.99,-272.25 5,-116.726 4.99,130.206 5,318.38 4.99,-13.72 5,83.79 4.99,-408.79 5,-51.8 4.99,76.81 5,-3.42 4.99,362.5 4.99,-7.26 5,69.87 14.99,-439.91 4.99,213.49 5,-103.52 4.99,74.18 5,224 4.99,23.61 5,-510.6 4.99,-213.664 5,538.614 4.99,133.88 4.99,-83.03 5,-181.95 5,-131.37 4.99,131.24 5,-149.71 4.99,171.95 5,-127.82 4.99,530.55 5,-190.9 9.99,217.69 4.99,-193.01 5,2.02 4.99,-8.89 5,142.77 4.99,-93.55 5,22.54 4.99,237.8 4.99,-16.8 10,-316.98 4.99,-516.583 5,268.123 4.99,132.53 5,214.31 4.99,147.33 5,-121.63 4.99,-45.58 5,0.19 4.99,-138.58 5,-189.92 4.99,221.45 5,86.84 4.99,-58.07 9.99,486.02 4.99,-185.5 5,81.29 5,8.28 4.99,125.19 5,188.18 4.99,13.69 9.99,-406.4 5,-145.09 4.99,47.3 5,297.25 4.99,23.49 5,-51.93 4.99,160.78 5,-3.55 4.99,-222.97 5,-20.88 4.99,30.85 v 0" /></g></g><g
         transform="scale(10)"
         id="g62"><text
           id="text66"
           style="font-variant:normal;font-weight:normal;font-size:12px;font-family:Arial;-inkscape-font-specification:Arial;writing-mode:lr-tb;fill:#262626;fill-opacity:1;fill-rule:nonzero;stroke:none"
           transform="matrix(1,0,0,-1,75.1637,396.578)"><tspan
             id="tspan64"
             y="0"
             x="0 6.673831 10.007817 16.681648 23.355478 29.355478 35.35548 38.689465 45.363297 52.037128 58.710957 65.384789 72.058617 75.392609 82.066437 86.062439 92.736267 99.410103 102.07611 108.07611 111.4101 114.07611 120.74995 127.42377 130.75775 134.09172 144.08772 152.09172 160.09572 167.10373 173.77756 177.11153 183.78535 190.45918 197.13303 201.12901 207.80286">2 day( ahead predic)ion, MSE=4.81e­03</tspan></text>
</g><path
         id="path68"
         style="fill:none;stroke:#4c72b0;stroke-width:17.5;stroke-linecap:round;stroke-linejoin:round;stroke-miterlimit:10;stroke-dasharray:none;stroke-opacity:1"
         d="m 413.746,3778.28 h 200" /><g
         transform="scale(10)"
         id="g70"><text
           id="text74"
           style="font-variant:normal;font-weight:normal;font-size:10px;font-family:Arial;-inkscape-font-specification:Arial;writing-mode:lr-tb;fill:#262626;fill-opacity:1;fill-rule:nonzero;stroke:none"
           transform="matrix(1,0,0,-1,69.3746,374.328)"><tspan
             id="tspan72"
             y="0"
             x="0 7.2214832 12.783204 18.344536">Real</tspan></text>
</g><path
         id="path76"
         style="fill:none;stroke:#55a868;stroke-width:17.5;stroke-linecap:round;stroke-linejoin:round;stroke-miterlimit:10;stroke-dasharray:none;stroke-opacity:1"
         d="m 413.746,3635 h 200" /><g
         transform="scale(10)"
         id="g78"><text
           id="text82"
           style="font-variant:normal;font-weight:normal;font-size:10px;font-family:Arial;-inkscape-font-specification:Arial;writing-mode:lr-tb;fill:#262626;fill-opacity:1;fill-rule:nonzero;stroke:none"
           transform="matrix(1,0,0,-1,69.3746,360)"><tspan
             id="tspan80"
             y="0"
             x="0 8.3299999 15 18.33 25.551483 31.113205 36.674534">MS­Conv</tspan></text>
<text
           id="text86"
           style="font-variant:normal;font-weight:normal;font-size:10px;font-family:Arial;-inkscape-font-specification:Arial;writing-mode:lr-tb;fill:#262626;fill-opacity:1;fill-rule:nonzero;stroke:none"
           transform="matrix(1,0,0,-1,111.0492,360)"><tspan
             id="tspan84"
             y="0"
             x="0 5.8400002 11.401721 18.071722 24.179926">+LSTM</tspan></text>
</g><path
         id="path88"
         style="fill:#eaeaf2;fill-opacity:1;fill-rule:nonzero;stroke:none"
         d="m 3323.75,305.777 h 3000 v 3600 h -3000 z" /><g
         transform="scale(10)"
         id="g90"><text
           id="text94"
           style="font-variant:normal;font-weight:normal;font-size:10px;font-family:Arial;-inkscape-font-specification:Arial;writing-mode:lr-tb;fill:#262626;fill-opacity:1;fill-rule:nonzero;stroke:none"
           transform="matrix(1,0,0,-1,343.23,16.3277)"><tspan
             id="tspan92"
             y="0"
             x="0 44.387501 49.949207 55.510529 94.337425 99.899139 105.46046 144.28735 149.84906 155.41039 194.23729 199.799 205.36031 244.18761 249.74893 255.31064">0100200300400500</tspan></text>
<text
           id="text98"
           style="font-variant:normal;font-weight:normal;font-size:11px;font-family:Arial;-inkscape-font-specification:Arial;writing-mode:lr-tb;fill:#262626;fill-opacity:1;fill-rule:nonzero;stroke:none"
           transform="matrix(1,0,0,-1,455.336,2.2808)"><tspan
             id="tspan96"
             y="0"
             x="0 6.3441443 8.7879019 17.950903 24.068464 27.124706 30.180948 36.298512 42.416073 48.533638">Time Index</tspan></text>
<text
           id="text112"
           style="font-variant:normal;font-weight:normal;font-size:10px;font-family:Arial;-inkscape-font-specification:Arial;writing-mode:lr-tb;fill:#262626;fill-opacity:1;fill-rule:nonzero;stroke:none"
           transform="matrix(1,0,0,-1,314.25,52.9847)"><tspan
             id="tspan100"
             y="0"
             x="0 5.5613184">30</tspan><tspan
             id="tspan102"
             y="-57.505901"
             x="0 5.5613184">40</tspan><tspan
             id="tspan104"
             y="-115.0118"
             x="0 5.5613184">50</tspan><tspan
             id="tspan106"
             y="-172.5173"
             x="0 5.5613184">60</tspan><tspan
             id="tspan108"
             y="-230.02319"
             x="0 5.5613184">70</tspan><tspan
             id="tspan110"
             y="-287.52911"
             x="0 5.5613184">80</tspan></text>
</g><g
         id="g114"><g
           clip-path="url(#clipPath120)"
           id="g116"><path
             id="path122"
             style="fill:none;stroke:#4c72b0;stroke-width:17.5;stroke-linecap:round;stroke-linejoin:round;stroke-miterlimit:10;stroke-dasharray:none;stroke-opacity:1"
             d="m 3460.11,1518.95 5,-356.01 4.99,-24.3 4.99,-110.92 5,155.82 5,36.44 4.99,331.19 4.99,-472.21 5,-117.792 4.99,224.482 5,623.81 4.99,90.32 5,-302.13 4.99,-162.16 5,40.67 5,212.87 4.99,-17.96 4.99,-89.27 5,41.73 5,-240.86 h 4.99 l 4.99,-124.65 5,-188.57 4.99,-62.86 9.99,-281 5,-7.922 4.99,123.07 5,95.078 4.99,298.434 5,-10.04 4.99,-110.92 5,83.46 5,316.39 4.99,167.44 9.99,-331.19 5,507.08 4.99,-54.41 4.99,-261.45 5,-68.67 4.99,260.93 5,-193.32 4.99,-84.51 5,-2.12 4.99,-158.46 10,-546.687 4.99,-92.433 4.99,-122.016 5,21.656 5,474.86 4.99,100.88 4.99,52.82 5,179.59 5,-33.81 4.99,389.82 4.99,-88.74 5,-11.1 4.99,-259.87 5,-573.098 4.99,-316.918 5,15.316 4.99,132.051 5,273.078 5,380.301 4.99,72.9 4.99,-53.35 5,-176.95 5,-107.75 4.99,-59.158 4.99,68.668 5,-1.59 5,186.98 4.99,133.11 4.99,-291.57 5,-152.645 9.99,352.835 4.99,257.76 9.99,-284.7 5,-233.989 5,58.629 4.99,-388.754 4.99,-101.941 5,242.972 5,-316.922 4.99,21.129 4.99,169.024 5,-57.047 5,246.672 4.99,444.737 4.99,-144.19 9.99,-521.864 5,77.645 5,-83.457 4.99,429.426 9.99,-191.735 5,-179.586 9.98,508.661 5,204.94 5,-28 4.99,69.72 4.99,-101.41 9.99,-513.411 5,-41.726 4.99,283.637 5,114.62 4.99,20.6 5,171.14 5,-48.59 4.99,-62.86 4.99,-124.66 5,193.33 9.99,225.01 4.99,-162.16 5,114.62 5,35.39 4.99,-15.32 4.99,11.09 5,-30.1 5,-1.06 4.99,198.08 4.99,-291.04 5,-101.41 4.99,209.16 5,-85.57 5,-59.68 4.99,253 4.99,14.26 5,-470.09 5,85.04 4.99,-4.76 4.99,146.31 5,334.88 5,-108.8 4.99,-370.8 4.99,-56.52 5,24.3 4.99,106.17 5,146.31 5,113.56 4.99,-231.88 4.99,81.87 5,-143.67 5,105.11 4.99,-11.09 4.99,78.17 5,171.67 5,43.84 9.98,204.41 5,-151.59 5,-514.99 4.99,-16.38 4.99,136.81 5,268.85 4.99,75 5,-55.99 5,-4.22 4.99,-13.73 4.99,-226.6 10,-299.49 4.99,-20.6 4.99,397.21 5,135.74 5,40.67 4.99,496.51 4.99,119.38 5,166.38 5,-151.59 4.99,-7.93 4.99,-124.13 9.99,-488.05 5,-12.15 5,-70.25 4.99,-144.73 14.99,322.73 4.99,-31.69 4.99,-95.61 5,-411.46 9.99,146.31 4.99,273.08 5,79.76 5,14.26 4.99,6.86 5,-17.43 4.99,-111.45 4.99,125.72 5,97.71 5,23.24 4.99,-35.92 4.99,104.06 5,54.41 5,-63.39 4.99,73.42 4.99,92.97 5,4.22 5,81.87 4.99,117.79 4.99,-53.35 5,-133.1 5,82.39 4.99,-292.09 5,44.37 4.99,283.64 4.99,148.43 5,200.18 5,337.52 4.99,-459 4.99,36.45 5,-569.41 5,51.24 4.99,-22.19 4.99,69.73 5,27.47 5,-3.7 4.99,-223.43 4.99,-53.88 5,233.99 4.99,319.57 5,-10.57 5,-39.09 9.98,413.06 5,21.12 5,-420.44 4.99,-8.98 4.99,165.33 5,331.18 5,249.84 4.99,128.35 4.99,35.39 5,-130.47 5,3.17 4.99,161.1 9.99,-641.23 5,-98.25 9.99,113.56 4.99,293.16 4.99,171.13 5,-429.95 5,-211.81 4.99,-31.69 4.99,272.02 5,161.63 9.99,-244.56 4.99,-254.06 5,45.95 5,127.83 4.99,229.24 5,-63.39 4.99,104.06 4.99,-12.15 5,-27.47 5,266.21 4.99,416.23 9.99,356.53 9.99,-1336.34 4.99,37.5 5,188.56 5,-78.17 4.99,-136.8 4.99,227.65 5,78.17 5,-170.6 4.99,290.51 5,-61.28 4.99,-238.21 5,11.62 4.99,167.96 5,-34.85 4.99,-95.61 4.99,-312.7 5,-73.94 5,-103.53 4.99,271.49 4.99,54.41 5,-30.11 5,-44.89 4.99,82.92 5,-146.31 9.99,52.29 4.99,114.62 5,190.68 14.98,343.33 5,1.59 4.99,-162.69 4.99,-257.23 5,-27.47 5,186.99 4.99,-367.63 4.99,-132.05 5,42.25 5,-14.79 4.99,-249.31 5,3.17 4.99,90.32 5,-145.78 4.99,-64.44 5,243.5 4.99,134.69 4.99,178.53 5,-43.31 9.99,98.78 4.99,11.62 5,-173.78 5,-343.33 4.99,-15.85 4.99,137.34 5,310.58 14.99,-337.53 4.99,-39.61 5,221.32 4.99,-143.15 14.98,-113.03 5,209.7 5,-360.77 4.99,-478.55 4.99,467.99 5,116.73 5,10.04 4.99,-77.65 5,-34.86 4.99,-82.93 5,61.27 4.99,145.79 5,44.9 4.99,319.03 4.99,-73.95 5,-369.74 5,-70.25 4.99,69.19 4.99,-20.6 10,-208.11 4.99,-2.64 4.99,-247.19 5,301.6 5,160.57 4.99,-98.77 5,172.19 4.99,-389.81 5,-108.28 4.99,-10.04 5,-49.12 4.99,124.66 5,285.75 4.99,16.37 5,-179.59 4.99,-67.6 4.99,-179.59 5,68.14 5,-71.84 4.99,-280.47 4.99,-71.31 5,92.96 5,-41.72 4.99,-51.24 5,97.72 4.99,-38.03 5,-248.785 4.99,200.715 5,70.25 9.99,-10.04 4.99,-320.612 5,237.692 4.99,349.67 4.99,7.92 5,-53.35 5,117.26 4.99,190.68 5,-28.52 4.99,-42.26 5,-204.94 9.99,-491.754 4.99,-24.297 5,13.207 4.99,-168.496 5,-230.824 4.99,389.281 4.99,628.563 5,26.41 5,-248.26 4.99,-333.291 4.99,228.181 5,-186.982 5,293.682 4.99,155.29 5,62.85 4.99,-59.68 5,232.41 4.99,-303.72 5,409.36 4.99,-168.5 5,-233.47 4.99,52.83 5,-15.32 4.99,160.04 9.99,-403.54 5,295.26 4.99,-242.44 4.99,-453.2 5,-13.203 5,-119.903 4.99,86.098 5,507.598 4.99,242.44 5,-306.88 4.99,76.59 5,-324.315 9.98,754.275 5,-36.45 9.99,-583.13 4.99,81.34 10,425.2 4.99,-32.22 5,-105.64 4.99,10.04 5,-398.79 4.99,-70.785 9.99,-207.054 5,-156.875 4.99,52.82 5,-41.727 4.99,112.508 9.99,651.793 5,-155.82 4.99,-23.77 4.99,138.39 5,390.87 5,29.58 4.99,55.46 5,-122.54 4.99,-441.58 5,-1.05 4.99,-174.31 5,65.5 4.99,265.16 5,143.14 4.99,36.44 5,-377.66 4.99,-58.1 5,242.44 9.99,104.58 4.99,406.72 4.99,-477.49 5,-169.55 5,4.22 4.99,108.81 5,-222.37 9.99,478.02 4.99,24.82 9.99,-652.324 5,86.094 4.99,26.41 5,356.01 4.99,-293.15 5,15.32 4.99,-159.52 5,49.13 4.99,351.25 5,-189.1 4.99,51.24 5,113.03 4.99,-75 5,335.4 4.99,249.84 9.99,-600.03 5,95.07 4.99,209.7 5,-157.4 4.99,222.37 5,142.61 4.99,47.54 4.99,-94.55 5,-489.64 5,29.05 4.99,-134.69 5,22.18 4.99,40.68 5,-33.81 4.99,106.7 5,194.38 4.99,-329.6 5,-160.05 4.99,216.04 5,44.89 4.99,-44.89 5,296.85 4.99,113.56 5,275.19 4.99,-166.38 4.99,339.1 5,54.93 5,39.62 4.99,108.81 5,16.37 4.99,-27.46 5,-388.23 4.99,-525.03 5,316.92 4.99,418.34 5,148.42 4.99,35.39 5,-237.69 4.99,41.72 5,-71.83 9.99,300.54 4.99,-35.38 v 0" /><path
             id="path124"
             style="fill:none;stroke:#55a868;stroke-width:17.5;stroke-linecap:round;stroke-linejoin:round;stroke-miterlimit:10;stroke-dasharray:none;stroke-opacity:1"
             d="m 3460.11,1343.9 5,78.24 4.99,233.38 4.99,-111.75 5,-154.91 5,-236.73 4.99,195.28 4.99,-273.76 5,400.53 4.99,-278.61 5,209.71 4.99,126.34 5,43.58 4.99,-300.86 5,204.29 5,346.63 4.99,189.71 4.99,-172.84 5,-216.38 5,40.38 4.99,27.77 4.99,-47.76 5,-106.33 4.99,-62.85 5,-162.99 4.99,32.83 5,-2.84 9.99,-354.011 4.99,119.831 5,28.15 4.99,-29.75 5,360.63 5,-210.4 4.99,-49.25 4.99,165.86 5,284.13 5,87.36 4.99,-237.58 4.99,-334.95 5,84.77 4.99,428.08 5,-399.87 4.99,101.39 5,-305.91 4.99,354.24 5,55.85 5,-136.1 4.99,-182.84 4.99,-89.28 5,-264.314 5,60.918 4.99,88.324 4.99,-326.617 5,131.848 5,-1.672 14.98,503.203 4.99,-17.33 5,-35.83 4.99,280.45 5,-452.29 4.99,504.45 5,-457.84 5,-39.61 4.99,350.38 4.99,-128.91 5,38.74 5,9.24 4.99,-299.93 4.99,266.74 5,-379.205 5,-182.348 4.99,-230.086 4.99,513.189 5,-432.013 4.99,425.533 5,-244.475 4.99,-91.167 5,418.092 4.99,-53.4 5,5.2 5,26.61 4.99,-279.819 9.99,353.529 5,87.61 9.98,-191.74 5,-18.54 9.99,-250.171 4.99,-62.93 5,17.93 4.99,54.394 10,204.735 4.99,267.852 4.99,-365.313 10,-345.497 4.99,434.84 4.99,-288.734 5,572.744 5,-358.514 4.99,317.914 4.99,68.66 5,224.81 4.99,-236.88 5,345.75 4.99,-227.02 5,-123.98 4.99,-151.71 5,73.62 5,-127.46 9.98,378.45 5,-94.23 5,299.35 4.99,-261.96 4.99,-50.68 5,270.83 5,-402.52 4.99,110.28 4.99,-286.22 5,774.61 5,-29.62 9.98,-409.59 5,132.99 4.99,-114.53 5,-34.75 5,73.84 4.99,-307.11 4.99,12.94 5,-10.05 5,467 4.99,-262.07 4.99,53.91 5,8.19 5,-372.94 4.99,306.83 4.99,-115.22 5,378.59 4.99,-444.19 5,280.33 5,93.98 4.99,-107.41 4.99,132.84 5,-95.89 5,-8.96 4.99,-166.95 4.99,120.31 5,19.96 5,321.68 4.99,-40.55 4.99,-135.94 5,-87.32 5,-116.59 4.99,-84.47 4.99,-24.96 9.99,460.37 5,-5.82 5,-312.36 4.99,157.77 4.99,-27.62 5,363.03 5,-213.47 9.98,256.94 5,-78.16 5,-369.09 4.99,-53.07 4.99,444.34 5,-336.08 5,66.05 4.99,460.83 4.99,107.35 5,-118.25 4.99,55.7 5,6.97 5,-125.8 4.99,81.97 4.99,-5.37 5,-70.67 5,9.75 4.99,-108.82 4.99,202.84 10,-138.13 4.99,20.27 4.99,-206.09 5,-117.97 5,-249.33 9.99,471.28 4.99,-1.61 4.99,-40.34 5,252.35 5,-3.16 4.99,17.96 4.99,288.07 5,24.81 5,-363.11 4.99,-150.74 4.99,8.55 5,-58.84 9.99,411.65 4.99,37.55 5,124.57 5,-134.65 4.99,57.57 5,-86.84 4.99,-125.1 4.99,85.25 5,-331.53 5,193.29 4.99,101.68 4.99,126.67 5,20.43 5,-89.96 4.99,152.38 4.99,18.71 5,-89.74 5,64.26 4.99,-235.04 4.99,-76.27 5,220.26 4.99,134.22 5,-304.92 5,47.84 4.99,203.05 4.99,-51.48 5,-135.81 5,377.16 4.99,-369.66 4.99,169.88 5,66.35 5,-75.75 4.99,95.58 4.99,-103.77 5,-153.77 9.99,173.7 5,264.62 4.99,31.67 5,40.4 4.99,-104.51 5,-78.38 4.99,44.09 4.99,4.6 5,47.97 5,259.67 4.99,-163.86 4.99,-400.38 5,-64.77 5,521.88 4.99,-111.98 4.99,170.99 5,-104.03 5,108.71 4.99,36.01 5,-314.32 4.99,7.17 4.99,166.07 5,62.69 5,-227.38 9.98,-249.91 5,292.98 5,-33.91 4.99,172.96 4.99,89.77 5,-25.63 5,9.88 4.99,-382.58 4.99,-285.26 5,544.77 5,-244.25 4.99,-64.25 5,-42.7 9.99,302.25 4.99,87.84 5,-32.16 4.99,-146.71 4.99,-190.24 5,-36.38 5,-5.99 4.99,-8.69 4.99,113.14 5,48.41 5,-184.24 4.99,102.13 9.99,-396.88 5,49.84 4.99,241.2 5,111.95 4.99,390.41 4.99,-305.23 5,-31.55 5,-196.42 4.99,114.65 4.99,-59.69 5,402.62 5,-121.76 4.99,-222.67 4.99,-10.16 5,103.76 5,-161.43 4.99,28.11 5,334.02 4.99,-150.4 5,60.7 4.99,-232.65 5,-344.92 4.99,228.43 4.99,-127.44 5,-2.19 5,223.42 4.99,-182.44 4.99,227.15 5,-53.78 5,-131.02 4.99,47.98 4.99,-182.2 5,-271.68 5,-7.9 4.99,501.63 5,-96.8 4.99,-245.27 9.99,368.62 5,-100.55 4.99,7.55 4.99,32.2 5,-170.26 5,189.27 4.99,-330.54 4.99,-73.72 5,73.64 5,180.3 4.99,-282.64 5,48.34 4.99,12.4 5,-161.27 4.99,2.78 5,-106.67 4.99,120.04 4.99,81.93 5,316.65 5,-288.17 4.99,48.26 4.99,32.6 5,-37.38 5,-21.02 4.99,190.92 4.99,0.07 5,-213.8 9.99,-206.04 5,124.71 4.99,14.42 5,1.46 4.99,-125.94 5,193.89 4.99,-274.23 5,25.97 4.99,-304.07 5,-140.16 4.99,-66.63 9.99,538.81 5,-1.74 4.99,58.19 4.99,-210.29 5,-97.26 5,113.22 4.99,-129.35 5,-287.94 4.99,110.17 5,-145.84 4.99,-24.21 5,191.15 4.99,-177.15 5,133.59 4.99,-70.18 5,-22.43 4.99,-295.291 4.99,400.071 5,104.57 5,9.11 4.99,57.65 5,-339.905 4.99,185.105 5,-0.24 4.99,119.49 5,390.93 4.99,-221.68 5,-116.02 4.99,-368.639 5,-162.946 4.99,129.754 4.99,37.117 10,-119.125 4.99,487.569 4.99,74.98 5,-187.77 5,103.57 4.99,-113.93 5,79.73 4.99,-170.15 5,313.35 4.99,-58.31 5,-479.039 4.99,136.819 5,213.87 4.99,37.79 5,402.43 4.99,-430.07 4.99,235.15 5,-39.92 5,-353.72 4.99,26.59 4.99,40.19 5,-12.02 5,-309.413 4.99,278.953 5,-4.5 4.99,102.44 5,23.64 4.99,-203.52 5,-114.068 4.99,207.918 4.99,-473.004 5,475.974 5,29.33 4.99,16.55 4.99,63.85 5,13.31 5,-113.9 4.99,-223.067 5,205.757 4.99,79.81 5,-31.68 4.99,-72.57 5,159.97 4.99,-53.09 5,-423.068 4.99,211.538 5,-28.671 4.99,-385.211 5,327.246 4.99,-7.883 5,19.485 4.99,442.254 4.99,-224.25 5,215.8 5,67.98 4.99,-294.14 5,-84.61 4.99,267.07 5,142.33 4.99,-52.91 5,-397.58 4.99,136.46 5,79.36 4.99,-203.69 5,363.04 4.99,-220.74 5,88.2 4.99,-168.04 5,-19.2 4.99,159.2 4.99,26.9 5,-70.68 5,207.82 4.99,78.82 5,-231.47 4.99,247.86 5,18.13 4.99,-304.99 5,95.24 4.99,40.7 5,-50.13 9.99,-269.69 4.99,38.98 5,219.48 4.99,-112.4 5,113.88 4.99,-17.05 5,104.05 4.99,-64.67 5,-398.431 4.99,634.921 5,-280.59 4.99,124.52 5,-65.89 4.99,60.53 5,120.54 4.99,-223.8 5,9.22 4.99,329.21 5,-394.3 4.99,170.92 4.99,249.97 5,45.49 5,-423.46 4.99,44.06 5,-21.29 4.99,-43.36 5,241.27 4.99,-167.31 5,136.08 4.99,-186.29 9.99,205.02 5,-42.12 4.99,139.72 5,72.61 4.99,-50.84 5,299.61 4.99,-253.43 4.99,370.64 5,-323.21 5,241.86 4.99,38.01 5,93.81 4.99,-352.2 5,102.05 4.99,-63.79 5,131.14 4.99,14.53 5,125.34 4.99,-325.06 5,128.99 4.99,214.6 5,-162.36 4.99,-85.14 5,-169.96 4.99,-4.36 v 0" /></g></g><g
         transform="scale(10)"
         id="g126"><text
           id="text130"
           style="font-variant:normal;font-weight:normal;font-size:12px;font-family:Arial;-inkscape-font-specification:Arial;writing-mode:lr-tb;fill:#262626;fill-opacity:1;fill-rule:nonzero;stroke:none"
           transform="matrix(1,0,0,-1,375.164,396.578)"><tspan
             id="tspan128"
             y="0"
             x="0 6.673831 10.007805 16.681635 23.355467 29.355467 35.355465 38.689465 45.36327 52.037079 58.710884 65.384689 72.058495 75.392494 82.066299 86.062302 92.736107 99.40992 102.07592 108.07592 111.40992 114.07592 120.74973">4 days ahead prediction</tspan></text>
<text
           id="text134"
           style="font-variant:normal;font-weight:normal;font-size:12px;font-family:Arial;-inkscape-font-specification:Arial;writing-mode:lr-tb;fill:#262626;fill-opacity:1;fill-rule:nonzero;stroke:none"
           transform="matrix(1,0,0,-1,502.588,396.578)"><tspan
             id="tspan132"
             y="0"
             x="0 3.333998 6.6679959 16.663996 24.667995 32.671997 39.679996 46.353802 49.687801 56.361607 63.035416 69.709221 73.705223 80.379028">, MSE=6.12e­03</tspan></text>
</g><path
         id="path136"
         style="fill:none;stroke:#4c72b0;stroke-width:17.5;stroke-linecap:round;stroke-linejoin:round;stroke-miterlimit:10;stroke-dasharray:none;stroke-opacity:1"
         d="m 3413.75,3778.28 h 200" /><g
         transform="scale(10)"
         id="g138"><text
           id="text142"
           style="font-variant:normal;font-weight:normal;font-size:10px;font-family:Arial;-inkscape-font-specification:Arial;writing-mode:lr-tb;fill:#262626;fill-opacity:1;fill-rule:nonzero;stroke:none"
           transform="matrix(1,0,0,-1,369.375,374.328)"><tspan
             id="tspan140"
             y="0"
             x="0 7.2214894 12.783198 18.344517">Real</tspan></text>
</g><path
         id="path144"
         style="fill:none;stroke:#55a868;stroke-width:17.5;stroke-linecap:round;stroke-linejoin:round;stroke-miterlimit:10;stroke-dasharray:none;stroke-opacity:1"
         d="m 3413.75,3635 h 200" /><g
         transform="scale(10)"
         id="g146"><text
           id="text150"
           style="font-variant:normal;font-weight:normal;font-size:10px;font-family:Arial;-inkscape-font-specification:Arial;writing-mode:lr-tb;fill:#262626;fill-opacity:1;fill-rule:nonzero;stroke:none"
           transform="matrix(1,0,0,-1,369.375,360)"><tspan
             id="tspan148"
             y="0"
             x="0 8.3299999 15 18.33 25.551489 31.113197 36.674515">MS­Conv</tspan></text>
<text
           id="text154"
           style="font-variant:normal;font-weight:normal;font-size:10px;font-family:Arial;-inkscape-font-specification:Arial;writing-mode:lr-tb;fill:#262626;fill-opacity:1;fill-rule:nonzero;stroke:none"
           transform="matrix(1,0,0,-1,411.0496,360)"><tspan
             id="tspan152"
             y="0"
             x="0 5.8400002 11.401709 18.071709 24.179903">+LSTM</tspan></text>
</g><path
         id="path156"
         style="fill:#eaeaf2;fill-opacity:1;fill-rule:nonzero;stroke:none"
         d="m 6323.75,305.777 h 3000 v 3600 h -3000 z" /><g
         transform="scale(10)"
         id="g158"><text
           id="text162"
           style="font-variant:normal;font-weight:normal;font-size:10px;font-family:Arial;-inkscape-font-specification:Arial;writing-mode:lr-tb;fill:#262626;fill-opacity:1;fill-rule:nonzero;stroke:none"
           transform="matrix(1,0,0,-1,643.23,16.3277)"><tspan
             id="tspan160"
             y="0"
             x="0 44.479301 50.040619 55.602325 94.52063 100.08234 105.64365 144.56235 150.12407 155.68538 194.60408 200.16545 205.7272 244.64601 250.20737 255.76913">0100200300400500</tspan></text>
<text
           id="text166"
           style="font-variant:normal;font-weight:normal;font-size:11px;font-family:Arial;-inkscape-font-specification:Arial;writing-mode:lr-tb;fill:#262626;fill-opacity:1;fill-rule:nonzero;stroke:none"
           transform="matrix(1,0,0,-1,755.336,2.2808)"><tspan
             id="tspan164"
             y="0"
             x="0 6.3441443 8.7879019 17.950903 24.068464 27.124706 30.180948 36.298512 42.416073 48.533638">Time Index</tspan></text>
<text
           id="text180"
           style="font-variant:normal;font-weight:normal;font-size:10px;font-family:Arial;-inkscape-font-specification:Arial;writing-mode:lr-tb;fill:#262626;fill-opacity:1;fill-rule:nonzero;stroke:none"
           transform="matrix(1,0,0,-1,614.25,74.8648)"><tspan
             id="tspan168"
             y="0"
             x="0 5.5613184">30</tspan><tspan
             id="tspan170"
             y="-53.544102"
             x="0 5.5613184">40</tspan><tspan
             id="tspan172"
             y="-107.0882"
             x="0 5.5613184">50</tspan><tspan
             id="tspan174"
             y="-160.63229"
             x="0 5.5613184">60</tspan><tspan
             id="tspan176"
             y="-214.17641"
             x="0 5.5613184">70</tspan><tspan
             id="tspan178"
             y="-267.72049"
             x="0 5.5613184">80</tspan></text>
</g><g
         id="g182"><g
           clip-path="url(#clipPath188)"
           id="g184"><path
             id="path190"
             style="fill:none;stroke:#4c72b0;stroke-width:17.5;stroke-linecap:round;stroke-linejoin:round;stroke-miterlimit:10;stroke-dasharray:none;stroke-opacity:1"
             d="m 6460.11,1340.63 5,-22.63 5.01,-103.28 5,145.08 5.01,33.94 5,308.37 5,-439.68 5.01,-109.68 5,209.02 5.01,580.83 5,84.1 5.01,-281.31 5,-150.99 5,37.87 5.01,198.2 5,-16.72 5.01,-83.12 5,38.85 5,-224.26 h 5.01 l 5,-116.07 5.01,-175.58 5,-58.52 10.01,-261.644 5,-7.379 5.01,114.593 5,88.52 5.01,277.88 5,-9.34 5,-103.29 5.01,77.71 5,294.6 5.01,155.9 10,-308.37 5.01,472.15 5,-50.66 5.01,-243.45 5,-63.93 5.01,242.95 5,-180 5.01,-78.69 5,-1.97 5,-147.54 10.01,-509.027 5,-86.071 5.01,-113.605 5,20.164 5.01,442.139 5,93.94 5,49.17 5.01,167.22 5.01,-31.47 5,362.95 5,-82.62 5.01,-10.33 5,-241.97 5.01,-533.615 5,-295.09 5,14.266 5.01,122.953 5,254.266 5.01,354.1 5,67.87 5,-49.67 5.01,-164.76 5,-100.33 5.01,-55.08 5,63.94 5.01,-1.48 5,174.1 5,123.94 5.01,-271.48 5,-142.13 10.01,328.53 5,240 10.01,-265.09 5.01,-217.87 5,54.59 5,-361.974 5.01,-94.918 5,226.235 5.01,-295.09 5,19.676 5.01,157.379 5,-53.118 5,229.68 5.01,414.1 5,-134.26 10.01,-485.91 5,72.293 5.01,-77.703 5,399.84 10.01,-178.53 5.01,-167.213 10.01,473.613 5,190.82 5,-26.06 5.01,64.92 5,-94.43 10.01,-478.04 5,-38.854 5.01,264.104 5,106.72 5,19.18 5.01,159.35 5.01,-45.25 5,-58.52 5,-116.07 5.01,180 10.01,209.51 5,-150.98 5,106.72 5.01,32.95 5,-14.26 5.01,10.33 5,-28.03 5,-0.99 5.01,184.43 5,-270.99 5.01,-94.43 5,194.76 5.01,-79.67 5,-55.57 5,235.57 5.01,13.28 5,-437.71 5.01,79.18 5,-4.43 5,136.23 5.01,311.81 5,-101.31 5.01,-345.25 5,-52.62 5.01,22.62 5,98.85 5,136.24 5.01,105.73 5,-215.9 5.01,76.23 5,-133.77 5,97.87 5.01,-10.33 5,72.79 5.01,159.84 5,40.82 10.01,190.33 5.01,-141.15 5,-479.52 5,-15.24 5.01,127.37 5,250.34 5.01,69.83 5,-52.13 5,-3.93 5.01,-12.79 5,-210.99 10.01,-278.85 5,-19.18 5.01,369.84 5,126.39 5,37.87 5.01,462.31 5.01,111.15 5,154.92 5,-141.15 5.01,-7.38 5,-115.58 10.01,-454.43 5,-11.31 5.01,-65.41 5,-134.76 15.01,300.5 5.01,-29.51 5,-89.02 5.01,-383.12 10.01,136.23 5,254.27 5,74.26 5.01,13.28 5,6.39 5.01,-16.23 5,-103.77 5,117.05 5.01,90.99 5,21.64 5.01,-33.45 5,96.89 5.01,50.66 5,-59.02 5,68.36 5.01,86.56 5,3.94 5.01,76.23 5,109.67 5,-49.67 5.01,-123.94 5,76.72 5.01,-271.97 5,41.32 5,264.1 5.01,138.2 5.01,186.39 5,314.27 5,-427.39 5.01,33.94 5,-530.17 5.01,47.7 5,-20.65 5,64.92 5.01,25.57 5,-3.44 5,-208.04 5.01,-50.16 5,217.87 5.01,297.55 5,-9.84 5.01,-36.39 10.01,384.59 5,19.68 5,-391.49 5.01,-8.36 5,153.94 5.01,308.37 5,232.62 5,119.51 5.01,32.95 5,-121.47 5.01,2.94 5,150.01 10.01,-597.06 5,-91.48 10.01,105.74 5.01,272.96 5,159.35 5,-400.34 5.01,-197.22 5,-29.51 5.01,253.29 5,150.49 10.01,-227.71 5.01,-236.56 5,42.79 5,119.02 5.01,213.45 5,-59.02 5,96.88 5.01,-11.31 5,-25.57 5.01,247.87 5,387.55 10.01,331.97 10.01,-1244.28 5,34.92 5,175.57 5.01,-72.78 5.01,-127.38 5,211.97 5,72.79 5.01,-158.86 5,270.5 5.01,-57.05 5,-221.81 5,10.82 5.01,156.4 5,-32.47 5,-89.01 5.01,-291.15 5,-68.86 5.01,-96.39 5,252.79 5.01,50.66 5,-28.04 5.01,-41.8 5,77.21 5,-136.23 10.01,48.69 5.01,106.72 5,177.55 15.01,319.67 5.01,1.48 5,-151.48 5.01,-239.51 5,-25.58 5,174.1 5.01,-342.3 5,-122.95 5.01,39.35 5,-13.77 5,-232.14 5.01,2.95 5,84.1 5.01,-135.74 5,-60 5,226.73 5.01,125.41 5.01,166.23 5,-40.33 10.01,91.97 5,10.82 5,-161.81 5.01,-319.67 5,-14.76 5.01,127.87 5,289.19 15.01,-314.27 5.01,-36.88 5,206.06 5.01,-133.28 15.01,-105.24 5,195.25 5.01,-335.91 5,-445.58 5.01,435.74 5,108.69 5,9.35 5.01,-72.3 5,-32.46 5,-77.21 5.01,57.05 5.01,135.74 5,41.8 5,297.05 5.01,-68.85 5,-344.27 5.01,-65.41 5,64.43 5,-19.18 10.01,-193.78 5.01,-2.45 5,-230.17 5,280.82 5.01,149.51 5,-91.97 5.01,160.33 5,-362.95 5.01,-100.82 5,-9.35 5,-45.74 5.01,116.07 5,266.07 5.01,15.25 5,-167.22 5,-62.95 5.01,-167.22 5,63.45 5.01,-66.89 5,-261.15 5.01,-66.4 5,86.56 5.01,-38.85 5,-47.71 5,90.99 5.01,-35.41 5,-231.65 5,186.9 5.01,65.41 10.01,-9.35 5,-298.53 5,221.32 5.01,325.57 5,7.38 5.01,-49.67 5,109.18 5.01,177.54 5,-26.55 5.01,-39.35 5,-190.82 10.01,-457.88 5,-22.62 5.01,12.29 5,-156.882 5,-214.922 5.01,362.464 5,585.26 5,24.59 5.01,-231.15 5.01,-310.34 5,212.47 5,-174.11 5.01,273.45 5,144.59 5.01,58.53 5,-55.57 5,216.39 5.01,-282.79 5,381.15 5.01,-156.88 5,-217.39 5,49.19 5.01,-14.27 5,149.02 10.01,-375.74 5.01,274.92 5,-225.74 5,-421.973 5.01,-12.297 5,-111.641 5.01,80.164 5,472.637 5,225.74 5.01,-285.74 5,71.31 5.01,-301.97 10.01,702.3 5,-33.93 10.01,-542.96 5,75.73 10.01,395.91 5,-30 5.01,-98.36 5,9.34 5.01,-371.31 5,-65.9 10.01,-192.797 5,-146.066 5.01,49.179 5,-38.851 5.01,104.754 10.01,606.901 5,-145.09 5,-22.13 5.01,128.85 5,363.95 5.01,27.54 5,51.64 5,-114.1 5.01,-411.16 5,-0.98 5.01,-162.3 5,60.98 5.01,246.89 5,133.29 5,33.93 5.01,-351.64 5,-54.1 5.01,225.74 10,97.37 5.01,378.7 5,-444.6 5.01,-157.87 5,3.93 5.01,101.32 5,-207.05 10.01,445.09 5,23.11 10.01,-607.39 5,80.17 5.01,24.59 5,331.48 5.01,-272.96 5,14.27 5,-148.53 5.01,45.74 5,327.06 5.01,-176.07 5,47.7 5.01,105.25 5,-69.84 5.01,312.3 5,232.63 10.01,-558.7 5,88.53 5,195.25 5.01,-146.56 5,207.05 5.01,132.79 5,44.26 5,-88.03 5.01,-455.91 5,27.05 5.01,-125.42 5,20.66 5.01,37.87 5,-31.47 5.01,99.34 5,180.99 5,-306.89 5.01,-149.02 5,201.15 5.01,41.8 5,-41.8 5,276.4 5.01,105.74 5,256.23 5.01,-154.92 5,315.74 5.01,51.15 5,36.89 5,101.31 5.01,15.25 5,-25.58 5.01,-361.48 5,-488.86 5,295.09 5.01,389.51 5,138.2 5.01,32.95 5,-221.31 5,38.85 5.01,-66.89 10.01,279.85 5,-32.96 v 0" /><path
             id="path192"
             style="fill:none;stroke:#55a868;stroke-width:17.5;stroke-linecap:round;stroke-linejoin:round;stroke-miterlimit:10;stroke-dasharray:none;stroke-opacity:1"
             d="m 6460.11,1952.75 5,43.52 5.01,30.55 5,-115.41 5.01,-150.75 5,31.59 5,-210.36 5.01,-17.8 5,48.48 5.01,146.21 5,-146.8 5.01,265.64 5,-153.17 5,90.09 5.01,0.24 5,-106.57 5.01,-135.53 5,537.91 5,-185.21 5.01,-137.88 5,636.69 5.01,-493.89 5,-127.32 5,-347.32 5.01,236.63 5,-314.26 5.01,-29.33 5,-221.32 5.01,349.78 5,-334.34 5,197.32 5.01,-153.68 5,458.91 5.01,139.91 5,73.8 5,-244.22 5.01,-154.37 5,175.88 5.01,265.58 5,-293.11 5.01,-176.3 5,206.64 5.01,-148.75 5,331.1 5,-117.47 5.01,-46.6 5,-309.51 5,97.78 5.01,-44.72 5,-31.79 10.01,-493.048 5,267.898 5.01,27.84 5.01,46.61 5,561.47 5,-671.89 5.01,496.05 5,113.47 5.01,-194.03 5,96.72 5,-128.51 5.01,79.63 5,-115.71 5.01,-406.39 5,-222.615 5,390.715 5.01,-77.71 5,-167.216 5.01,-209.891 5,558.277 5.01,-204.78 5,-33.74 5,155.39 5.01,-515.811 5,458.981 5.01,-646.067 5,481.077 5,-546.526 5.01,431.711 5,48.898 5.01,344.267 5,-192.33 5,174.41 5.01,-464.245 5,139.141 5.01,63.734 5,357.69 5.01,-14.82 5,-370.995 5,137.805 5.01,-144.555 5,280.795 5.01,-325.815 5,-159.808 5,-31.332 10.01,393.115 5.01,308.61 5,-368.47 5.01,86.98 5,-401.075 5.01,26.648 5,235.267 5,566.98 5.01,-417.3 5,327.69 5,-253.47 5.01,578.27 5,-336.77 5.01,164.99 5,-348.6 5,108.37 5.01,-0.69 5.01,296.65 5,-483.22 5,-312.448 5.01,392.448 5,72.93 5.01,-180.1 5,-12.96 5,130.51 5.01,388.31 5,-218.13 5.01,211.08 5,-122.91 5,-256.26 5.01,423.2 5,-8.56 5.01,-237.43 5,-59.64 5.01,228.99 5,120.05 5,-92.84 5.01,-210.77 5,-151.45 5.01,435.06 5,228.32 5,-722.95 5.01,-133.46 5,833.29 5.01,-477.04 5,93.02 5.01,188.84 5,430.72 5,-832.18 5.01,293.12 5,178.19 5.01,-98.18 5,-165.87 5,291.87 5.01,-103.16 5,-157.53 5.01,260.47 5,3.18 5,-480.59 5.01,223.21 5.01,-22.33 5,186.66 5,-200.59 5.01,359.33 5,-226.71 5.01,216.82 10,-168.49 5.01,46.25 5,-149.32 5,421.45 5.01,-193.15 10.01,196.78 5,-372.79 5,-8.94 5.01,-124.94 5.01,203.46 5,-334.83 5,71.44 5.01,374.65 5,236.82 5.01,-215.4 5,302.95 5,71.73 5.01,-434.87 5,82.03 5.01,33.53 5,-53.19 5,181.86 5.01,-212.7 5,461.31 10.01,-227.29 5.01,77.52 5,-533.25 5,378.6 5.01,1.61 5,-268.17 5.01,423.76 5,-92.89 10.01,-129.29 5,86.68 5.01,66.5 5,-67.88 5.01,182.01 5,256.57 5,-2.26 5.01,-335.45 5,256.83 5.01,-148.44 5,-375.36 5,416.12 5.01,48.59 5,89.39 5.01,-210.95 5,30.33 5,296.36 5.01,-221.52 5.01,-130.44 10,66.96 5.01,-229.48 5,78.2 5.01,235.53 5,-15.59 5,393.12 5.01,-205.18 5,85.2 5,-248.73 10.01,298.73 5.01,-173.2 5,108.32 5.01,-195.57 5,-50.56 5.01,457.98 5,-570.9 5,-199.24 5.01,461.36 5,-126.89 5.01,22.06 5,37.43 5,228.89 5.01,-320.33 5,-16.94 5.01,96.13 5,18.04 5.01,330.68 5,-312.72 5,199.21 5.01,93.43 5,-54.4 5.01,-149.21 5,71.51 5,-178.74 5.01,394.7 5,-196.73 5.01,10.93 5,-149.06 5,-7.69 5.01,112.97 5.01,-97.4 5,274.8 5,5.05 5.01,109.11 5,-53.09 5,-133.07 5.01,-339.48 5,147.37 5.01,407.71 5,-303.71 5,-20.14 5.01,-265.67 5,235.51 5.01,37.09 5,84.98 5,-226.13 5.01,728.26 5.01,-702.26 5,215.52 5,-49.12 5.01,-2.36 5,-102.57 5.01,39.98 5,-228.57 5,292.89 5.01,-276.81 5,-27.8 5,292.61 5.01,-324.74 5,144.99 5.01,29.15 5,62.84 5.01,-122.85 5,-216.18 5.01,116.15 10,-169.37 5.01,182.66 5,-275.31 5.01,397.7 5,-100.24 5,43.34 5.01,-188.25 5,174.64 5.01,-57.58 5,-1.98 5.01,-56.84 5,298.77 5,-92.72 5.01,311.39 5,-251.53 5.01,-167.31 5,237.39 5,131.44 5.01,-310.29 5,-20.66 5.01,7.75 5,217.98 5,-275.12 5.01,7.8 5.01,-183.18 5,2.55 5,319.87 5.01,-164.29 5,226.12 5,34.55 5.01,-78.58 5,-465.04 5.01,356.51 5,-382.4 5,253.46 5.01,-268.08 5,287.02 5.01,-297.18 5,216.28 5.01,4.43 5,-32.47 5.01,-250.02 5,305.71 5,10.6 5.01,-37.94 5,163.41 5.01,-336.19 5,25.72 5,59.48 5.01,-282.09 5,19.13 5,137.27 5.01,-159.65 5.01,145.4 5,-4.68 5,118.47 5.01,175.79 5,-227.05 5.01,-121.11 5,80.19 5,-51.1 5.01,316.93 5,-347.1 5.01,-47.42 5,62.51 5,6.97 5.01,150.01 5,3.12 5.01,-216.02 5,141.53 5.01,-300.9 5,24.96 5,212.73 5.01,-166.5 5,196.31 5.01,-198.47 5,-298.73 5,213.15 5.01,-398.92 10.01,460.65 5,62.1 5.01,-35.59 5,-261 5.01,128.86 5,-325.51 5,46.68 5.01,-99.78 5,244.11 5,-65.6 5.01,-88.65 5,257.26 5.01,-374.85 5,189.68 5,-215.63 5.01,313.58 5,-297.84 5.01,214.76 5,118.03 5.01,-320.52 5,389.46 5.01,-87.93 5,-309.45 5,-110.06 5.01,-420.955 5,1117.445 5.01,-26.7 5,-654.15 5,271.79 5.01,181.14 5,80.72 5,-47.64 5.01,-485.22 5.01,-257.392 5,45.23 5,411.632 5.01,81.66 5,391.58 5.01,-473.41 5,153.37 5,-208.03 5.01,26.63 5,-100.67 5.01,17.62 5,-29.51 5,59.61 5.01,-104.4 5,355.95 5.01,-47.25 5,130.81 5.01,-522.3 5,426.92 5,-288.18 5.01,472.1 5,-480.9 5.01,-62.8 5,-16.1 5,67.72 5.01,117.73 5,69.44 5.01,-394.96 5,98 5.01,-241.227 5,768.557 10.01,-343.96 5,-231.34 5.01,396.22 5,-34.53 5,-1.16 5.01,-166.2 5,97.71 5.01,-217.24 10,199.08 5.01,-73.12 5,218.09 5.01,-9.62 5,-36.39 5.01,-713.519 5,711.389 5.01,-413.51 5,133.85 5,41.68 5.01,117.65 5,-359.687 5.01,102.227 5,458.09 5,-232.6 5.01,-304.48 5,245.71 5.01,54.21 5,-61.79 5.01,184.21 10,187.15 5.01,-459.48 5,61.03 5.01,192.28 5,46.26 5,81.84 5.01,-516.29 5,156.2 5.01,-72.31 5,827.3 5.01,-305.96 5,-215.22 5.01,362.08 5,-17.09 5,-196.54 5.01,70.46 5,118.2 5,-289.34 5.01,182.01 5,57.03 5.01,-120.84 5,-36.24 5,-291.3 5.01,329.72 5,-72.94 5.01,-386.26 5,364.11 5.01,29 5,48.04 5.01,-181.87 5,111.47 5,-117.79 5.01,107.32 5,181.22 5,-667.921 5.01,285.571 5,522.34 5.01,-110.54 5,-53.62 5,-20.06 5.01,-32.81 5,82.22 5.01,-155.72 10.01,333.6 5,-292.77 5.01,-47.01 5,-107.85 5,667.95 5.01,-348.57 5,-96.63 5.01,99.82 5,333.14 5,-27.26 5.01,-122.38 5,-326.44 5.01,-1.63 5,442.52 5.01,-368.53 5,131.52 5,175.55 5.01,30.6 5,14.71 5.01,74.43 5,-82.78 5,-209.72 5.01,150.54 5,443.38 5.01,-371.38 5,118.63 5,-281.55 5.01,81.01 5.01,309.85 5,-342.33 5,228.77 v 0" /></g></g><g
         transform="scale(10)"
         id="g194"><text
           id="text198"
           style="font-variant:normal;font-weight:normal;font-size:12px;font-family:Arial;-inkscape-font-specification:Arial;writing-mode:lr-tb;fill:#262626;fill-opacity:1;fill-rule:nonzero;stroke:none"
           transform="matrix(1,0,0,-1,675.164,396.578)"><tspan
             id="tspan196"
             y="0"
             x="0 6.6738067 10.007805 16.681612 23.355417 29.355417 35.355419 38.689415 45.363224 52.037029 58.710835 65.384644 72.058449 75.392448 82.066254 86.062256 92.736061 99.409866 102.07587 108.07587 111.40987 114.07587 120.74967">6 days ahead prediction</tspan></text>
<text
           id="text202"
           style="font-variant:normal;font-weight:normal;font-size:12px;font-family:Arial;-inkscape-font-specification:Arial;writing-mode:lr-tb;fill:#262626;fill-opacity:1;fill-rule:nonzero;stroke:none"
           transform="matrix(1,0,0,-1,802.588,396.578)"><tspan
             id="tspan200"
             y="0"
             x="0 3.333998 6.6679959 16.663996 24.667995 32.671997 39.679996 46.353851 49.687801 56.361656 63.035511 69.709366 73.705368 80.379219">, MSE=7.68e­03</tspan></text>
</g><path
         id="path204"
         style="fill:none;stroke:#4c72b0;stroke-width:17.5;stroke-linecap:round;stroke-linejoin:round;stroke-miterlimit:10;stroke-dasharray:none;stroke-opacity:1"
         d="m 6413.75,3778.28 h 200" /><g
         transform="scale(10)"
         id="g206"><text
           id="text210"
           style="font-variant:normal;font-weight:normal;font-size:10px;font-family:Arial;-inkscape-font-specification:Arial;writing-mode:lr-tb;fill:#262626;fill-opacity:1;fill-rule:nonzero;stroke:none"
           transform="matrix(1,0,0,-1,669.375,374.328)"><tspan
             id="tspan208"
             y="0"
             x="0 7.2214646 12.783174 18.344492">Real</tspan></text>
</g><path
         id="path212"
         style="fill:none;stroke:#55a868;stroke-width:17.5;stroke-linecap:round;stroke-linejoin:round;stroke-miterlimit:10;stroke-dasharray:none;stroke-opacity:1"
         d="m 6413.75,3635 h 200" /><g
         transform="scale(10)"
         id="g214"><text
           id="text218"
           style="font-variant:normal;font-weight:normal;font-size:10px;font-family:Arial;-inkscape-font-specification:Arial;writing-mode:lr-tb;fill:#262626;fill-opacity:1;fill-rule:nonzero;stroke:none"
           transform="matrix(1,0,0,-1,669.375,360)"><tspan
             id="tspan216"
             y="0"
             x="0 8.3299999 15 18.33 25.551464 31.113174 36.674492">MS­Conv</tspan></text>
<text
           id="text222"
           style="font-variant:normal;font-weight:normal;font-size:10px;font-family:Arial;-inkscape-font-specification:Arial;writing-mode:lr-tb;fill:#262626;fill-opacity:1;fill-rule:nonzero;stroke:none"
           transform="matrix(1,0,0,-1,711.0496,360)"><tspan
             id="tspan220"
             y="0"
             x="0 5.8400002 11.401709 18.071709 24.179903">+LSTM</tspan></text>
</g></g></g></svg>